<svg xmlns="http://www.w3.org/2000/svg" width="1720" height="1180" viewBox="0 0 1720 1180" font-family="'IBM Plex Sans','DejaVu Sans',sans-serif">
<rect width="1720" height="1180" fill="#f7f6f1"/>
<g opacity="0.6">
<line x1="0.0" y1="0.0" x2="0.0" y2="1180.0" stroke="#e4e2da" stroke-width="0.5" opacity="1"/>
<line x1="40.0" y1="0.0" x2="40.0" y2="1180.0" stroke="#e4e2da" stroke-width="0.5" opacity="1"/>
<line x1="80.0" y1="0.0" x2="80.0" y2="1180.0" stroke="#e4e2da" stroke-width="0.5" opacity="1"/>
<line x1="120.0" y1="0.0" x2="120.0" y2="1180.0" stroke="#e4e2da" stroke-width="0.5" opacity="1"/>
<line x1="160.0" y1="0.0" x2="160.0" y2="1180.0" stroke="#e4e2da" stroke-width="0.5" opacity="1"/>
<line x1="200.0" y1="0.0" x2="200.0" y2="1180.0" stroke="#e4e2da" stroke-width="0.5" opacity="1"/>
<line x1="240.0" y1="0.0" x2="240.0" y2="1180.0" stroke="#e4e2da" stroke-width="0.5" opacity="1"/>
<line x1="280.0" y1="0.0" x2="280.0" y2="1180.0" stroke="#e4e2da" stroke-width="0.5" opacity="1"/>
<line x1="320.0" y1="0.0" x2="320.0" y2="1180.0" stroke="#e4e2da" stroke-width="0.5" opacity="1"/>
<line x1="360.0" y1="0.0" x2="360.0" y2="1180.0" stroke="#e4e2da" stroke-width="0.5" opacity="1"/>
<line x1="400.0" y1="0.0" x2="400.0" y2="1180.0" stroke="#e4e2da" stroke-width="0.5" opacity="1"/>
<line x1="440.0" y1="0.0" x2="440.0" y2="1180.0" stroke="#e4e2da" stroke-width="0.5" opacity="1"/>
<line x1="480.0" y1="0.0" x2="480.0" y2="1180.0" stroke="#e4e2da" stroke-width="0.5" opacity="1"/>
<line x1="520.0" y1="0.0" x2="520.0" y2="1180.0" stroke="#e4e2da" stroke-width="0.5" opacity="1"/>
<line x1="560.0" y1="0.0" x2="560.0" y2="1180.0" stroke="#e4e2da" stroke-width="0.5" opacity="1"/>
<line x1="600.0" y1="0.0" x2="600.0" y2="1180.0" stroke="#e4e2da" stroke-width="0.5" opacity="1"/>
<line x1="640.0" y1="0.0" x2="640.0" y2="1180.0" stroke="#e4e2da" stroke-width="0.5" opacity="1"/>
<line x1="680.0" y1="0.0" x2="680.0" y2="1180.0" stroke="#e4e2da" stroke-width="0.5" opacity="1"/>
<line x1="720.0" y1="0.0" x2="720.0" y2="1180.0" stroke="#e4e2da" stroke-width="0.5" opacity="1"/>
<line x1="760.0" y1="0.0" x2="760.0" y2="1180.0" stroke="#e4e2da" stroke-width="0.5" opacity="1"/>
<line x1="800.0" y1="0.0" x2="800.0" y2="1180.0" stroke="#e4e2da" stroke-width="0.5" opacity="1"/>
<line x1="840.0" y1="0.0" x2="840.0" y2="1180.0" stroke="#e4e2da" stroke-width="0.5" opacity="1"/>
<line x1="880.0" y1="0.0" x2="880.0" y2="1180.0" stroke="#e4e2da" stroke-width="0.5" opacity="1"/>
<line x1="920.0" y1="0.0" x2="920.0" y2="1180.0" stroke="#e4e2da" stroke-width="0.5" opacity="1"/>
<line x1="960.0" y1="0.0" x2="960.0" y2="1180.0" stroke="#e4e2da" stroke-width="0.5" opacity="1"/>
<line x1="1000.0" y1="0.0" x2="1000.0" y2="1180.0" stroke="#e4e2da" stroke-width="0.5" opacity="1"/>
<line x1="1040.0" y1="0.0" x2="1040.0" y2="1180.0" stroke="#e4e2da" stroke-width="0.5" opacity="1"/>
<line x1="1080.0" y1="0.0" x2="1080.0" y2="1180.0" stroke="#e4e2da" stroke-width="0.5" opacity="1"/>
<line x1="1120.0" y1="0.0" x2="1120.0" y2="1180.0" stroke="#e4e2da" stroke-width="0.5" opacity="1"/>
<line x1="1160.0" y1="0.0" x2="1160.0" y2="1180.0" stroke="#e4e2da" stroke-width="0.5" opacity="1"/>
<line x1="1200.0" y1="0.0" x2="1200.0" y2="1180.0" stroke="#e4e2da" stroke-width="0.5" opacity="1"/>
<line x1="1240.0" y1="0.0" x2="1240.0" y2="1180.0" stroke="#e4e2da" stroke-width="0.5" opacity="1"/>
<line x1="1280.0" y1="0.0" x2="1280.0" y2="1180.0" stroke="#e4e2da" stroke-width="0.5" opacity="1"/>
<line x1="1320.0" y1="0.0" x2="1320.0" y2="1180.0" stroke="#e4e2da" stroke-width="0.5" opacity="1"/>
<line x1="1360.0" y1="0.0" x2="1360.0" y2="1180.0" stroke="#e4e2da" stroke-width="0.5" opacity="1"/>
<line x1="1400.0" y1="0.0" x2="1400.0" y2="1180.0" stroke="#e4e2da" stroke-width="0.5" opacity="1"/>
<line x1="1440.0" y1="0.0" x2="1440.0" y2="1180.0" stroke="#e4e2da" stroke-width="0.5" opacity="1"/>
<line x1="1480.0" y1="0.0" x2="1480.0" y2="1180.0" stroke="#e4e2da" stroke-width="0.5" opacity="1"/>
<line x1="1520.0" y1="0.0" x2="1520.0" y2="1180.0" stroke="#e4e2da" stroke-width="0.5" opacity="1"/>
<line x1="1560.0" y1="0.0" x2="1560.0" y2="1180.0" stroke="#e4e2da" stroke-width="0.5" opacity="1"/>
<line x1="1600.0" y1="0.0" x2="1600.0" y2="1180.0" stroke="#e4e2da" stroke-width="0.5" opacity="1"/>
<line x1="1640.0" y1="0.0" x2="1640.0" y2="1180.0" stroke="#e4e2da" stroke-width="0.5" opacity="1"/>
<line x1="1680.0" y1="0.0" x2="1680.0" y2="1180.0" stroke="#e4e2da" stroke-width="0.5" opacity="1"/>
<line x1="0.0" y1="0.0" x2="1720.0" y2="0.0" stroke="#e4e2da" stroke-width="0.5" opacity="1"/>
<line x1="0.0" y1="40.0" x2="1720.0" y2="40.0" stroke="#e4e2da" stroke-width="0.5" opacity="1"/>
<line x1="0.0" y1="80.0" x2="1720.0" y2="80.0" stroke="#e4e2da" stroke-width="0.5" opacity="1"/>
<line x1="0.0" y1="120.0" x2="1720.0" y2="120.0" stroke="#e4e2da" stroke-width="0.5" opacity="1"/>
<line x1="0.0" y1="160.0" x2="1720.0" y2="160.0" stroke="#e4e2da" stroke-width="0.5" opacity="1"/>
<line x1="0.0" y1="200.0" x2="1720.0" y2="200.0" stroke="#e4e2da" stroke-width="0.5" opacity="1"/>
<line x1="0.0" y1="240.0" x2="1720.0" y2="240.0" stroke="#e4e2da" stroke-width="0.5" opacity="1"/>
<line x1="0.0" y1="280.0" x2="1720.0" y2="280.0" stroke="#e4e2da" stroke-width="0.5" opacity="1"/>
<line x1="0.0" y1="320.0" x2="1720.0" y2="320.0" stroke="#e4e2da" stroke-width="0.5" opacity="1"/>
<line x1="0.0" y1="360.0" x2="1720.0" y2="360.0" stroke="#e4e2da" stroke-width="0.5" opacity="1"/>
<line x1="0.0" y1="400.0" x2="1720.0" y2="400.0" stroke="#e4e2da" stroke-width="0.5" opacity="1"/>
<line x1="0.0" y1="440.0" x2="1720.0" y2="440.0" stroke="#e4e2da" stroke-width="0.5" opacity="1"/>
<line x1="0.0" y1="480.0" x2="1720.0" y2="480.0" stroke="#e4e2da" stroke-width="0.5" opacity="1"/>
<line x1="0.0" y1="520.0" x2="1720.0" y2="520.0" stroke="#e4e2da" stroke-width="0.5" opacity="1"/>
<line x1="0.0" y1="560.0" x2="1720.0" y2="560.0" stroke="#e4e2da" stroke-width="0.5" opacity="1"/>
<line x1="0.0" y1="600.0" x2="1720.0" y2="600.0" stroke="#e4e2da" stroke-width="0.5" opacity="1"/>
<line x1="0.0" y1="640.0" x2="1720.0" y2="640.0" stroke="#e4e2da" stroke-width="0.5" opacity="1"/>
<line x1="0.0" y1="680.0" x2="1720.0" y2="680.0" stroke="#e4e2da" stroke-width="0.5" opacity="1"/>
<line x1="0.0" y1="720.0" x2="1720.0" y2="720.0" stroke="#e4e2da" stroke-width="0.5" opacity="1"/>
<line x1="0.0" y1="760.0" x2="1720.0" y2="760.0" stroke="#e4e2da" stroke-width="0.5" opacity="1"/>
<line x1="0.0" y1="800.0" x2="1720.0" y2="800.0" stroke="#e4e2da" stroke-width="0.5" opacity="1"/>
<line x1="0.0" y1="840.0" x2="1720.0" y2="840.0" stroke="#e4e2da" stroke-width="0.5" opacity="1"/>
<line x1="0.0" y1="880.0" x2="1720.0" y2="880.0" stroke="#e4e2da" stroke-width="0.5" opacity="1"/>
<line x1="0.0" y1="920.0" x2="1720.0" y2="920.0" stroke="#e4e2da" stroke-width="0.5" opacity="1"/>
<line x1="0.0" y1="960.0" x2="1720.0" y2="960.0" stroke="#e4e2da" stroke-width="0.5" opacity="1"/>
<line x1="0.0" y1="1000.0" x2="1720.0" y2="1000.0" stroke="#e4e2da" stroke-width="0.5" opacity="1"/>
<line x1="0.0" y1="1040.0" x2="1720.0" y2="1040.0" stroke="#e4e2da" stroke-width="0.5" opacity="1"/>
<line x1="0.0" y1="1080.0" x2="1720.0" y2="1080.0" stroke="#e4e2da" stroke-width="0.5" opacity="1"/>
<line x1="0.0" y1="1120.0" x2="1720.0" y2="1120.0" stroke="#e4e2da" stroke-width="0.5" opacity="1"/>
<line x1="0.0" y1="1160.0" x2="1720.0" y2="1160.0" stroke="#e4e2da" stroke-width="0.5" opacity="1"/>
</g>
<rect x="16.0" y="16.0" width="1688.0" height="1148.0" rx="0" fill="none" stroke="#23262b" stroke-width="2" opacity="1"/>
<rect x="24.0" y="24.0" width="1672.0" height="1132.0" rx="0" fill="none" stroke="#6a6e74" stroke-width="0.8" opacity="1"/>
<text x="44.0" y="62.0" font-family="'IBM Plex Sans','DejaVu Sans',sans-serif" font-size="25" font-weight="700" fill="#23262b" text-anchor="start">PROFILHUVUD — RÖD 650 nm  (1 av 2)</text>
<text x="44.0" y="88.0" font-family="'IBM Plex Sans','DejaVu Sans',sans-serif" font-size="13.5" font-weight="400" fill="#6a6e74" text-anchor="start">Dubbel-oblik lasertriangulering · ett mäthuvud: profilkamera (mono) + objektiv + bandpassfilter + Powell-linjelaser på vinkelbeslag. Grön modul identisk (520-laser + 525-filter).</text>
<line x1="44.0" y1="102.0" x2="1676.0" y2="102.0" stroke="#23262b" stroke-width="1.4" opacity="1"/>
<g transform="translate(0,8)">
<rect x="450.0" y="980.0" width="300.0" height="30.0" rx="0" fill="#e9e1cf" stroke="#b9a96f" stroke-width="1.6" opacity="1"/>
<text x="458.0" y="1000.0" font-family="'IBM Plex Sans','DejaVu Sans',sans-serif" font-size="10" font-weight="700" fill="#8a7d4e" text-anchor="start">BRÄDA (yta)</text>
<rect x="434.0" y="1010.0" width="332.0" height="16.0" rx="3" fill="#2b2f35" stroke="#1c1f24" stroke-width="1.2" opacity="1"/>
<text x="600.0" y="1044.0" font-family="'IBM Plex Sans','DejaVu Sans',sans-serif" font-size="9.5" font-weight="700" fill="#6a6e74" text-anchor="middle">transportband</text>
<line x1="420.0" y1="980.0" x2="780.0" y2="980.0" stroke="#9a9ea4" stroke-width="0.8" stroke-dasharray="6 4" opacity="1"/>
<line x1="600.0" y1="270.0" x2="600.0" y2="980.0" stroke="#e8542c" stroke-width="2.4" opacity="1"/>
<line x1="245.0" y1="365.1" x2="600.0" y2="980.0" stroke="#8a9099" stroke-width="1.6" stroke-dasharray="5 4" opacity="1"/>
<polygon points="245.0,365.1 586.1,988.0 613.9,972.0" fill="#2f6fb0" stroke="#2f6fb0" stroke-width="1" opacity="0.1"/>
<line x1="245.0" y1="365.1" x2="586.1" y2="988.0" stroke="#2f6fb0" stroke-width="0.8" opacity="1"/>
<line x1="245.0" y1="365.1" x2="613.9" y2="972.0" stroke="#2f6fb0" stroke-width="0.8" opacity="1"/>
<circle cx="600.0" cy="980.0" r="4.2" fill="#e8542c" stroke="#a8331a" stroke-width="1"/>
<text x="610.0" y="972.0" font-family="'IBM Plex Sans','DejaVu Sans',sans-serif" font-size="9.5" font-weight="700" fill="#e8542c" text-anchor="start">laserlinje (tvärsnitt)</text>
<polygon points="209.7,306.8 602.2,177.6 597.8,164.4 205.3,293.5" fill="#c3c6ca" stroke="#aab0b6" stroke-width="1.4" opacity="1"/>
<line x1="403.8" y1="235.6" x2="403.8" y2="150.0" stroke="#aab0b6" stroke-width="6" opacity="1"/>
<rect x="45.0" y="138.0" width="560.0" height="22.0" rx="3" fill="#c3c6ca" stroke="#aab0b6" stroke-width="1.4" opacity="1"/>
<text x="55.0" y="153.0" font-family="'IBM Plex Sans','DejaVu Sans',sans-serif" font-size="9.5" font-weight="700" fill="#6a6e74" text-anchor="start">PORTALENS TVÄRBALK (T-spår)</text>
<rect x="387.8" y="150.0" width="32.0" height="22.0" rx="3" fill="#aab0b6" stroke="#8a9099" stroke-width="1.4" opacity="1"/>
<text x="427.8" y="165.0" font-family="'IBM Plex Sans','DejaVu Sans',sans-serif" font-size="9" font-weight="700" fill="#6a6e74" text-anchor="start">justerbart portalfäste (vinkel + höjd)</text>
<g transform="translate(245.0,365.1) rotate(60.0)">
<rect x="-6.0" y="-16.0" width="6.0" height="32.0" rx="0" fill="#f6d9cf" stroke="#e8542c" stroke-width="1.4" opacity="1"/>
<rect x="-46.0" y="-16.0" width="40.0" height="32.0" rx="2" fill="#d9dde1" stroke="#9aa0a6" stroke-width="1.4" opacity="1"/>
<g>
<line x1="-9.0" y1="-16.0" x2="-9.0" y2="16.0" stroke="#c2c7cc" stroke-width="0.6" opacity="1"/>
<line x1="-15.0" y1="-16.0" x2="-15.0" y2="16.0" stroke="#c2c7cc" stroke-width="0.6" opacity="1"/>
<line x1="-21.0" y1="-16.0" x2="-21.0" y2="16.0" stroke="#c2c7cc" stroke-width="0.6" opacity="1"/>
<line x1="-27.0" y1="-16.0" x2="-27.0" y2="16.0" stroke="#c2c7cc" stroke-width="0.6" opacity="1"/>
<line x1="-33.0" y1="-16.0" x2="-33.0" y2="16.0" stroke="#c2c7cc" stroke-width="0.6" opacity="1"/>
<line x1="-39.0" y1="-16.0" x2="-39.0" y2="16.0" stroke="#c2c7cc" stroke-width="0.6" opacity="1"/>
</g>
<rect x="-75.0" y="-14.5" width="29.0" height="29.0" rx="2" fill="#e9edf1" stroke="#7e8489" stroke-width="1.6" opacity="1"/>
<rect x="-82.0" y="-7.0" width="8.0" height="6.0" rx="0" fill="#2b2f35" stroke="#1c1f24" stroke-width="1" opacity="1"/>
<rect x="-82.0" y="2.0" width="8.0" height="5.0" rx="0" fill="#caa64a" stroke="#8a6510" stroke-width="1" opacity="1"/>
</g>
<g transform="translate(600.0,270.0) rotate(90.0)">
<rect x="-99.0" y="-9.0" width="99.0" height="18.0" rx="3" fill="#d7b7b0" stroke="#9a5a52" stroke-width="1.4" opacity="1"/>
<rect x="-101.0" y="-3.0" width="-10.0" height="6.0" rx="0" fill="#444" stroke="#222" stroke-width="1" opacity="1"/>
<circle cx="-2.0" cy="0.0" r="3.0" fill="#fff" stroke="#e8542c" stroke-width="1.2"/>
</g>
<line x1="95.0" y1="307.1" x2="214.8" y2="312.7" stroke="#6a6e74" stroke-width="1" opacity="1"/>
<circle cx="214.8" cy="312.7" r="2.2" fill="#6a6e74" stroke="#6a6e74" stroke-width="0"/>
<circle cx="95.0" cy="307.1" r="12.0" fill="#fff" stroke="#23262b" stroke-width="1.6"/>
<text x="95.0" y="311.6" font-family="'IBM Plex Sans','DejaVu Sans',sans-serif" font-size="12.5" font-weight="700" fill="#23262b" text-anchor="middle">1</text>
<line x1="95.0" y1="345.1" x2="232.0" y2="342.6" stroke="#6a6e74" stroke-width="1" opacity="1"/>
<circle cx="232.0" cy="342.6" r="2.2" fill="#6a6e74" stroke="#6a6e74" stroke-width="0"/>
<circle cx="95.0" cy="345.1" r="12.0" fill="#fff" stroke="#23262b" stroke-width="1.6"/>
<text x="95.0" y="349.6" font-family="'IBM Plex Sans','DejaVu Sans',sans-serif" font-size="12.5" font-weight="700" fill="#23262b" text-anchor="middle">2</text>
<line x1="95.0" y1="383.1" x2="243.5" y2="362.5" stroke="#6a6e74" stroke-width="1" opacity="1"/>
<circle cx="243.5" cy="362.5" r="2.2" fill="#6a6e74" stroke="#6a6e74" stroke-width="0"/>
<circle cx="95.0" cy="383.1" r="12.0" fill="#fff" stroke="#e8542c" stroke-width="1.6"/>
<text x="95.0" y="387.6" font-family="'IBM Plex Sans','DejaVu Sans',sans-serif" font-size="12.5" font-weight="700" fill="#e8542c" text-anchor="middle">3</text>
<line x1="750.0" y1="200.0" x2="600.0" y2="220.5" stroke="#6a6e74" stroke-width="1" opacity="1"/>
<circle cx="600.0" cy="220.5" r="2.2" fill="#6a6e74" stroke="#6a6e74" stroke-width="0"/>
<circle cx="750.0" cy="200.0" r="12.0" fill="#fff" stroke="#e8542c" stroke-width="1.6"/>
<text x="750.0" y="204.5" font-family="'IBM Plex Sans','DejaVu Sans',sans-serif" font-size="12.5" font-weight="700" fill="#e8542c" text-anchor="middle">4</text>
<line x1="253.8" y1="385.6" x2="403.8" y2="235.6" stroke="#6a6e74" stroke-width="1" opacity="1"/>
<circle cx="403.8" cy="235.6" r="2.2" fill="#6a6e74" stroke="#6a6e74" stroke-width="0"/>
<circle cx="253.8" cy="385.6" r="12.0" fill="#fff" stroke="#23262b" stroke-width="1.6"/>
<text x="253.8" y="390.1" font-family="'IBM Plex Sans','DejaVu Sans',sans-serif" font-size="12.5" font-weight="700" fill="#23262b" text-anchor="middle">5</text>
<line x1="553.8" y1="120.0" x2="403.8" y2="161.0" stroke="#6a6e74" stroke-width="1" opacity="1"/>
<circle cx="403.8" cy="161.0" r="2.2" fill="#6a6e74" stroke="#6a6e74" stroke-width="0"/>
<circle cx="553.8" cy="120.0" r="12.0" fill="#fff" stroke="#23262b" stroke-width="1.6"/>
<text x="553.8" y="124.5" font-family="'IBM Plex Sans','DejaVu Sans',sans-serif" font-size="12.5" font-weight="700" fill="#23262b" text-anchor="middle">6</text>
<line x1="245.0" y1="365.1" x2="205.2" y2="388.1" stroke="#23262b" stroke-width="0.7" opacity="1"/>
<line x1="600.0" y1="980.0" x2="560.2" y2="1003.0" stroke="#23262b" stroke-width="0.7" opacity="1"/>
<line x1="205.2" y1="388.1" x2="560.2" y2="1003.0" stroke="#23262b" stroke-width="1" opacity="1"/>
<line x1="560.2" y1="1003.0" x2="553.7" y2="998.3" stroke="#23262b" stroke-width="1" opacity="1"/>
<line x1="560.2" y1="1003.0" x2="559.3" y2="995.0" stroke="#23262b" stroke-width="1" opacity="1"/>
<line x1="560.2" y1="1003.0" x2="205.2" y2="388.1" stroke="#23262b" stroke-width="1" opacity="1"/>
<line x1="205.2" y1="388.1" x2="211.6" y2="392.8" stroke="#23262b" stroke-width="1" opacity="1"/>
<line x1="205.2" y1="388.1" x2="206.0" y2="396.1" stroke="#23262b" stroke-width="1" opacity="1"/>
<rect x="332.3" y="687.2" width="100.8" height="15.0" rx="0" fill="#f7f6f1" stroke="none" stroke-width="0" opacity="0.92"/>
<text x="382.7" y="699.6" font-family="'IBM Plex Mono','DejaVu Sans Mono',monospace" font-size="12" font-weight="700" fill="#23262b" text-anchor="middle" transform="rotate(60.00000000000001 382.7 699.6)">WD 710 (slant)</text>
<line x1="207.5" y1="300.2" x2="199.4" y2="275.5" stroke="#23262b" stroke-width="0.7" opacity="1"/>
<line x1="600.0" y1="171.0" x2="591.9" y2="146.3" stroke="#23262b" stroke-width="0.7" opacity="1"/>
<line x1="199.4" y1="275.5" x2="591.9" y2="146.3" stroke="#23262b" stroke-width="1" opacity="1"/>
<line x1="591.9" y1="146.3" x2="586.0" y2="151.7" stroke="#23262b" stroke-width="1" opacity="1"/>
<line x1="591.9" y1="146.3" x2="583.9" y2="145.5" stroke="#23262b" stroke-width="1" opacity="1"/>
<line x1="591.9" y1="146.3" x2="199.4" y2="275.5" stroke="#23262b" stroke-width="1" opacity="1"/>
<line x1="199.4" y1="275.5" x2="205.3" y2="270.1" stroke="#23262b" stroke-width="1" opacity="1"/>
<line x1="199.4" y1="275.5" x2="207.3" y2="276.3" stroke="#23262b" stroke-width="1" opacity="1"/>
<rect x="356.0" y="203.2" width="79.2" height="13.8" rx="0" fill="#f7f6f1" stroke="none" stroke-width="0" opacity="0.92"/>
<text x="395.6" y="214.6" font-family="'IBM Plex Mono','DejaVu Sans Mono',monospace" font-size="11" font-weight="700" fill="#23262b" text-anchor="middle" transform="rotate(-18.216152521726112 395.6 214.6)">baslinje 368</text>
<line x1="600.0" y1="980.0" x2="245.0" y2="365.1" stroke="#9a9ea4" stroke-width="0.6" opacity="1"/>
<line x1="600.0" y1="980.0" x2="600.0" y2="270.0" stroke="#9a9ea4" stroke-width="0.6" opacity="1"/>
<path d="M 565.0 919.4 A 70 70 0 0 1 600.0 910.0" fill="none" stroke="#23262b" stroke-width="1.2"/>
<text x="550.0" y="902.0" font-family="'IBM Plex Mono','DejaVu Sans Mono',monospace" font-size="13" font-weight="700" fill="#23262b" text-anchor="middle">θ = 30°</text>
<text x="550.0" y="918.0" font-family="'IBM Plex Sans','DejaVu Sans',sans-serif" font-size="8.5" font-weight="700" fill="#6a6e74" text-anchor="middle">triangulering</text>
<line x1="600.0" y1="980.0" x2="600.0" y2="840.0" stroke="#9a9ea4" stroke-width="0.8" stroke-dasharray="3 3" opacity="1"/>
<path d="M 600.0 870.0 A 110 110 0 0 0 545.0 884.7" fill="none" stroke="#6a6e74" stroke-width="1"/>
<text x="560.0" y="860.0" font-family="'IBM Plex Mono','DejaVu Sans Mono',monospace" font-size="10.5" font-weight="700" fill="#6a6e74" text-anchor="middle">30° oblik</text>
</g>
<rect x="670.0" y="540.0" width="480.0" height="296.0" rx="9" fill="#fff" stroke="#2f6fb0" stroke-width="1.4" opacity="1"/>
<rect x="670.0" y="540.0" width="480.0" height="30.0" rx="9" fill="#2f6fb0" stroke="#2f6fb0" stroke-width="0" opacity="1"/>
<rect x="670.0" y="558.0" width="480.0" height="12.0" rx="0" fill="#2f6fb0" stroke="#2f6fb0" stroke-width="0" opacity="1"/>
<text x="684.0" y="560.0" font-family="'IBM Plex Sans','DejaVu Sans',sans-serif" font-size="13" font-weight="700" fill="#fff" text-anchor="start">DETALJ A — optisk stack  (2,5×)</text>
<rect x="734.0" y="652.3" width="75.4" height="75.4" rx="3" fill="#e9edf1" stroke="#7e8489" stroke-width="1.8" opacity="1"/>
<rect x="717.0" y="673.0" width="17.0" height="13.0" rx="2" fill="#2b2f35" stroke="#1c1f24" stroke-width="1.2" opacity="1"/>
<text x="726.0" y="668.0" font-family="'IBM Plex Sans','DejaVu Sans',sans-serif" font-size="7.5" font-weight="700" fill="#6a6e74" text-anchor="middle">USB3</text>
<rect x="717.0" y="693.0" width="17.0" height="12.0" rx="2" fill="#caa64a" stroke="#8a6510" stroke-width="1.2" opacity="1"/>
<text x="726.0" y="716.0" font-family="'IBM Plex Sans','DejaVu Sans',sans-serif" font-size="7.5" font-weight="700" fill="#6a6e74" text-anchor="middle">5V/IO</text>
<text x="771.7" y="745.7" font-family="'IBM Plex Sans','DejaVu Sans',sans-serif" font-size="9" font-weight="700" fill="#23262b" text-anchor="middle">① MV-CS050-10UM · C-mount</text>
<rect x="809.4" y="678.0" width="9.0" height="24.0" rx="0" fill="#aab0b6" stroke="#8a9099" stroke-width="1.4" opacity="1"/>
<rect x="818.4" y="648.4" width="104.0" height="83.2" rx="3" fill="#d9dde1" stroke="#9aa0a6" stroke-width="1.8" opacity="1"/>
<line x1="826.4" y1="648.4" x2="826.4" y2="731.6" stroke="#c2c7cc" stroke-width="0.8" opacity="1"/>
<line x1="842.4" y1="648.4" x2="842.4" y2="731.6" stroke="#c2c7cc" stroke-width="0.8" opacity="1"/>
<line x1="858.4" y1="648.4" x2="858.4" y2="731.6" stroke="#c2c7cc" stroke-width="0.8" opacity="1"/>
<line x1="874.4" y1="648.4" x2="874.4" y2="731.6" stroke="#c2c7cc" stroke-width="0.8" opacity="1"/>
<line x1="890.4" y1="648.4" x2="890.4" y2="731.6" stroke="#c2c7cc" stroke-width="0.8" opacity="1"/>
<line x1="906.4" y1="648.4" x2="906.4" y2="731.6" stroke="#c2c7cc" stroke-width="0.8" opacity="1"/>
<text x="870.4" y="638.4" font-family="'IBM Plex Sans','DejaVu Sans',sans-serif" font-size="9" font-weight="700" fill="#23262b" text-anchor="middle">② MVL-MF1228M-8MP · 12 mm</text>
<text x="870.4" y="747.6" font-family="'IBM Plex Sans','DejaVu Sans',sans-serif" font-size="8" font-weight="700" fill="#6a6e74" text-anchor="middle">fokus + iris F2.8–16</text>
<text x="923.4" y="622.4" font-family="'IBM Plex Sans','DejaVu Sans',sans-serif" font-size="8.5" font-weight="700" fill="#2f6fb0" text-anchor="middle">M30.5×0.5 filtergänga</text>
<line x1="922.4" y1="628.4" x2="922.4" y2="644.4" stroke="#2f6fb0" stroke-width="0.8" opacity="1"/>
<rect x="922.4" y="648.4" width="15.6" height="83.2" rx="2" fill="#f6d9cf" stroke="#e8542c" stroke-width="1.9" opacity="1"/>
<text x="946.0" y="688.0" font-family="'IBM Plex Sans','DejaVu Sans',sans-serif" font-size="9.5" font-weight="700" fill="#e8542c" text-anchor="start">③ FS03-BP650</text>
<text x="946.0" y="702.0" font-family="'IBM Plex Sans','DejaVu Sans',sans-serif" font-size="8" font-weight="700" fill="#6a6e74" text-anchor="start">650 nm bandpass</text>
<line x1="1028.0" y1="736.0" x2="946.0" y2="696.0" stroke="#e8542c" stroke-width="1.6" opacity="1"/>
<line x1="946.0" y1="696.0" x2="954.0" y2="696.3" stroke="#e8542c" stroke-width="1.6" opacity="1"/>
<line x1="946.0" y1="696.0" x2="951.1" y2="702.1" stroke="#e8542c" stroke-width="1.6" opacity="1"/>
<text x="968.0" y="748.0" font-family="'IBM Plex Sans','DejaVu Sans',sans-serif" font-size="8.5" font-weight="700" fill="#e8542c" text-anchor="start">laser 650 nm in</text>
<text x="686.0" y="822.0" font-family="'IBM Plex Sans','DejaVu Sans',sans-serif" font-size="8.8" font-weight="400" fill="#6a6e74" text-anchor="start">Filtret skruvas på objektivets front → mono-kameran ser i princip BARA laserlinjen.</text>
<rect x="1196.0" y="120.0" width="488.0" height="250.0" rx="9" fill="#fff" stroke="#23262b" stroke-width="1.4" opacity="1"/>
<rect x="1196.0" y="120.0" width="488.0" height="30.0" rx="9" fill="#23262b" stroke="#23262b" stroke-width="0" opacity="1"/>
<rect x="1196.0" y="138.0" width="488.0" height="12.0" rx="0" fill="#23262b" stroke="#23262b" stroke-width="0" opacity="1"/>
<text x="1210.0" y="140.0" font-family="'IBM Plex Sans','DejaVu Sans',sans-serif" font-size="13" font-weight="700" fill="#fff" text-anchor="start">KOMPONENTER</text>
<circle cx="1218.0" cy="166.0" r="12.0" fill="#fff" stroke="#23262b" stroke-width="1.6"/>
<text x="1218.0" y="170.5" font-family="'IBM Plex Sans','DejaVu Sans',sans-serif" font-size="12.5" font-weight="700" fill="#23262b" text-anchor="middle">1</text>
<text x="1240.0" y="160.0" font-family="'IBM Plex Sans','DejaVu Sans',sans-serif" font-size="11.5" font-weight="700" fill="#6a6e74" text-anchor="start">Profilkamera</text>
<text x="1240.0" y="176.0" font-family="'IBM Plex Sans','DejaVu Sans',sans-serif" font-size="11.5" font-weight="700" fill="#23262b" text-anchor="start">Hikrobot MV-CS050-10UM</text>
<text x="1240.0" y="190.0" font-family="'IBM Plex Sans','DejaVu Sans',sans-serif" font-size="9.5" font-weight="400" fill="#6a6e74" text-anchor="start">mono, USB3, 2/3″ IMX264, C-mount, 60 fps</text>
<circle cx="1218.0" cy="208.0" r="12.0" fill="#fff" stroke="#7e8489" stroke-width="1.6"/>
<text x="1218.0" y="212.5" font-family="'IBM Plex Sans','DejaVu Sans',sans-serif" font-size="12.5" font-weight="700" fill="#7e8489" text-anchor="middle">2</text>
<text x="1240.0" y="202.0" font-family="'IBM Plex Sans','DejaVu Sans',sans-serif" font-size="11.5" font-weight="700" fill="#6a6e74" text-anchor="start">Objektiv</text>
<text x="1240.0" y="218.0" font-family="'IBM Plex Sans','DejaVu Sans',sans-serif" font-size="11.5" font-weight="700" fill="#23262b" text-anchor="start">HIKROBOT MVL-MF1228M-8MP</text>
<text x="1240.0" y="232.0" font-family="'IBM Plex Sans','DejaVu Sans',sans-serif" font-size="9.5" font-weight="400" fill="#6a6e74" text-anchor="start">12 mm F2.8, C-mount, M30.5-filtergänga</text>
<circle cx="1218.0" cy="250.0" r="12.0" fill="#fff" stroke="#e8542c" stroke-width="1.6"/>
<text x="1218.0" y="254.5" font-family="'IBM Plex Sans','DejaVu Sans',sans-serif" font-size="12.5" font-weight="700" fill="#e8542c" text-anchor="middle">3</text>
<text x="1240.0" y="244.0" font-family="'IBM Plex Sans','DejaVu Sans',sans-serif" font-size="11.5" font-weight="700" fill="#6a6e74" text-anchor="start">Bandpassfilter</text>
<text x="1240.0" y="260.0" font-family="'IBM Plex Sans','DejaVu Sans',sans-serif" font-size="11.5" font-weight="700" fill="#23262b" text-anchor="start">FS03-BP650</text>
<text x="1240.0" y="274.0" font-family="'IBM Plex Sans','DejaVu Sans',sans-serif" font-size="9.5" font-weight="400" fill="#6a6e74" text-anchor="start">650 nm, FWHM 40, M30.5×0.5, T≥90 %</text>
<circle cx="1218.0" cy="292.0" r="12.0" fill="#fff" stroke="#e8542c" stroke-width="1.6"/>
<text x="1218.0" y="296.5" font-family="'IBM Plex Sans','DejaVu Sans',sans-serif" font-size="12.5" font-weight="700" fill="#e8542c" text-anchor="middle">4</text>
<text x="1240.0" y="286.0" font-family="'IBM Plex Sans','DejaVu Sans',sans-serif" font-size="11.5" font-weight="700" fill="#6a6e74" text-anchor="start">Linjelaser</text>
<text x="1240.0" y="302.0" font-family="'IBM Plex Sans','DejaVu Sans',sans-serif" font-size="11.5" font-weight="700" fill="#23262b" text-anchor="start">MZLaser AJPWHF5638</text>
<text x="1240.0" y="316.0" font-family="'IBM Plex Sans','DejaVu Sans',sans-serif" font-size="9.5" font-weight="400" fill="#6a6e74" text-anchor="start">638 nm Powell, 45°, 100 mW, 5 V ACC</text>
<circle cx="1218.0" cy="334.0" r="12.0" fill="#fff" stroke="#6a6e74" stroke-width="1.6"/>
<text x="1218.0" y="338.5" font-family="'IBM Plex Sans','DejaVu Sans',sans-serif" font-size="12.5" font-weight="700" fill="#6a6e74" text-anchor="middle">5</text>
<text x="1240.0" y="328.0" font-family="'IBM Plex Sans','DejaVu Sans',sans-serif" font-size="11.5" font-weight="700" fill="#6a6e74" text-anchor="start">Vinkelbeslag</text>
<text x="1240.0" y="344.0" font-family="'IBM Plex Sans','DejaVu Sans',sans-serif" font-size="11.5" font-weight="700" fill="#23262b" text-anchor="start">alu, justerbar vinkel/baslinje</text>
<text x="1240.0" y="358.0" font-family="'IBM Plex Sans','DejaVu Sans',sans-serif" font-size="9.5" font-weight="400" fill="#6a6e74" text-anchor="start">låser kamera + laser i 30° triangulering</text>
<circle cx="1218.0" cy="376.0" r="12.0" fill="#fff" stroke="#6a6e74" stroke-width="1.6"/>
<text x="1218.0" y="380.5" font-family="'IBM Plex Sans','DejaVu Sans',sans-serif" font-size="12.5" font-weight="700" fill="#6a6e74" text-anchor="middle">6</text>
<text x="1240.0" y="370.0" font-family="'IBM Plex Sans','DejaVu Sans',sans-serif" font-size="11.5" font-weight="700" fill="#6a6e74" text-anchor="start">Portalfäste</text>
<text x="1240.0" y="386.0" font-family="'IBM Plex Sans','DejaVu Sans',sans-serif" font-size="11.5" font-weight="700" fill="#23262b" text-anchor="start">klämma mot T-spår-balk</text>
<text x="1240.0" y="400.0" font-family="'IBM Plex Sans','DejaVu Sans',sans-serif" font-size="9.5" font-weight="400" fill="#6a6e74" text-anchor="start">justerbar höjd + obliquity 30°</text>
<rect x="1196.0" y="384.0" width="488.0" height="150.0" rx="9" fill="#fff" stroke="#2f6fb0" stroke-width="1.4" opacity="1"/>
<rect x="1196.0" y="384.0" width="488.0" height="30.0" rx="9" fill="#2f6fb0" stroke="#2f6fb0" stroke-width="0" opacity="1"/>
<rect x="1196.0" y="402.0" width="488.0" height="12.0" rx="0" fill="#2f6fb0" stroke="#2f6fb0" stroke-width="0" opacity="1"/>
<text x="1210.0" y="404.0" font-family="'IBM Plex Sans','DejaVu Sans',sans-serif" font-size="13" font-weight="700" fill="#fff" text-anchor="start">MÅTT &amp; GEOMETRI</text>
<text x="1212.0" y="420.0" font-family="'IBM Plex Sans','DejaVu Sans',sans-serif" font-size="10.5" font-weight="400" fill="#23262b" text-anchor="start">Arbetsavstånd WD (slant)</text>
<text x="1668.0" y="420.0" font-family="'IBM Plex Mono','DejaVu Sans Mono',monospace" font-size="11" font-weight="700" fill="#23262b" text-anchor="end">710 mm</text>
<text x="1212.0" y="439.0" font-family="'IBM Plex Sans','DejaVu Sans',sans-serif" font-size="10.5" font-weight="400" fill="#23262b" text-anchor="start">Trianguleringsvinkel θ</text>
<text x="1668.0" y="439.0" font-family="'IBM Plex Mono','DejaVu Sans Mono',monospace" font-size="11" font-weight="700" fill="#23262b" text-anchor="end">30°</text>
<text x="1212.0" y="458.0" font-family="'IBM Plex Sans','DejaVu Sans',sans-serif" font-size="10.5" font-weight="400" fill="#23262b" text-anchor="start">Baslinje kamera↔laser</text>
<text x="1668.0" y="458.0" font-family="'IBM Plex Mono','DejaVu Sans Mono',monospace" font-size="11" font-weight="700" fill="#23262b" text-anchor="end">368 mm</text>
<text x="1212.0" y="477.0" font-family="'IBM Plex Sans','DejaVu Sans',sans-serif" font-size="10.5" font-weight="400" fill="#23262b" text-anchor="start">Huvudets obliquity (från lod)</text>
<text x="1668.0" y="477.0" font-family="'IBM Plex Mono','DejaVu Sans Mono',monospace" font-size="11" font-weight="700" fill="#23262b" text-anchor="end">30°</text>
<text x="1212.0" y="496.0" font-family="'IBM Plex Sans','DejaVu Sans',sans-serif" font-size="10.5" font-weight="400" fill="#23262b" text-anchor="start">Laser-fläkt (Powell)</text>
<text x="1668.0" y="496.0" font-family="'IBM Plex Mono','DejaVu Sans Mono',monospace" font-size="11" font-weight="700" fill="#23262b" text-anchor="end">45° → linje 500 mm</text>
<text x="1212.0" y="515.0" font-family="'IBM Plex Sans','DejaVu Sans',sans-serif" font-size="10.5" font-weight="400" fill="#23262b" text-anchor="start">Kamera-FOV @ WD</text>
<text x="1668.0" y="515.0" font-family="'IBM Plex Mono','DejaVu Sans Mono',monospace" font-size="11" font-weight="700" fill="#23262b" text-anchor="end">500 mm (0,204 mm/px)</text>
<rect x="1196.0" y="548.0" width="488.0" height="150.0" rx="9" fill="#fff" stroke="#a23ad6" stroke-width="1.4" opacity="1"/>
<rect x="1196.0" y="548.0" width="488.0" height="30.0" rx="9" fill="#a23ad6" stroke="#a23ad6" stroke-width="0" opacity="1"/>
<rect x="1196.0" y="566.0" width="488.0" height="12.0" rx="0" fill="#a23ad6" stroke="#a23ad6" stroke-width="0" opacity="1"/>
<text x="1210.0" y="568.0" font-family="'IBM Plex Sans','DejaVu Sans',sans-serif" font-size="13" font-weight="700" fill="#fff" text-anchor="start">OPTISK PRINCIP — höjd → pixelförskjutning</text>
<rect x="1236.0" y="598.0" width="92.0" height="16.0" rx="2" fill="#e9edf1" stroke="#7e8489" stroke-width="1.4" opacity="1"/>
<text x="1282.0" y="610.0" font-family="'IBM Plex Sans','DejaVu Sans',sans-serif" font-size="8.5" font-weight="700" fill="#6a6e74" text-anchor="middle">sensor</text>
<line x1="1246.0" y1="614.0" x2="1246.0" y2="618.0" stroke="#6a6e74" stroke-width="0.8" opacity="1"/>
<line x1="1264.0" y1="614.0" x2="1264.0" y2="618.0" stroke="#6a6e74" stroke-width="0.8" opacity="1"/>
<line x1="1282.0" y1="614.0" x2="1282.0" y2="618.0" stroke="#6a6e74" stroke-width="0.8" opacity="1"/>
<line x1="1300.0" y1="614.0" x2="1300.0" y2="618.0" stroke="#6a6e74" stroke-width="0.8" opacity="1"/>
<line x1="1318.0" y1="614.0" x2="1318.0" y2="618.0" stroke="#6a6e74" stroke-width="0.8" opacity="1"/>
<line x1="1282.0" y1="614.0" x2="1282.0" y2="668.0" stroke="#2f6fb0" stroke-width="1" stroke-dasharray="3 3" opacity="1"/>
<line x1="1486.0" y1="638.0" x2="1486.0" y2="668.0" stroke="#b9a96f" stroke-width="1.4" opacity="1"/>
<line x1="1486.0" y1="668.0" x2="1482.7" y2="660.7" stroke="#b9a96f" stroke-width="1.4" opacity="1"/>
<line x1="1486.0" y1="668.0" x2="1489.3" y2="660.7" stroke="#b9a96f" stroke-width="1.4" opacity="1"/>
<text x="1494.0" y="654.0" font-family="'IBM Plex Sans','DejaVu Sans',sans-serif" font-size="9.5" font-weight="700" fill="#8a7d4e" text-anchor="start">Δz (höjd)</text>
<line x1="1386.0" y1="668.0" x2="1496.0" y2="668.0" stroke="#b9a96f" stroke-width="2" opacity="1"/>
<line x1="1282.0" y1="614.0" x2="1441.0" y2="668.0" stroke="#e8542c" stroke-width="1.6" opacity="1"/>
<line x1="1300.0" y1="614.0" x2="1471.0" y2="668.0" stroke="#e8542c" stroke-width="1.0" stroke-dasharray="3 2" opacity="1"/>
<text x="1266.0" y="686.0" font-family="'IBM Plex Sans','DejaVu Sans',sans-serif" font-size="9.5" font-weight="400" fill="#23262b" text-anchor="start">Δz → spot flyttas Δp på sensorn:  δz = subpixel·0,204 / sin θ</text>
<text x="1266.0" y="701.0" font-family="'IBM Plex Sans','DejaVu Sans',sans-serif" font-size="9.5" font-weight="700" fill="#6a6e74" text-anchor="start">→ ~0,02–0,04 mm teoretiskt · ~0,05–0,15 mm på virke</text>
<rect x="1196.0" y="712.0" width="488.0" height="250.0" rx="9" fill="#fff" stroke="#23262b" stroke-width="1.4" opacity="1"/>
<rect x="1196.0" y="712.0" width="488.0" height="30.0" rx="9" fill="#23262b" stroke="#23262b" stroke-width="0" opacity="1"/>
<rect x="1196.0" y="730.0" width="488.0" height="12.0" rx="0" fill="#23262b" stroke="#23262b" stroke-width="0" opacity="1"/>
<text x="1210.0" y="732.0" font-family="'IBM Plex Sans','DejaVu Sans',sans-serif" font-size="13" font-weight="700" fill="#fff" text-anchor="start">NOTER</text>
<text x="1210.0" y="740.0" font-family="'IBM Plex Sans','DejaVu Sans',sans-serif" font-size="9.6" font-weight="400" fill="#23262b" text-anchor="start">A.  Rikta kamera + laser så de KONVERGERAR på samma linje på brädan vid WD 710 mm; lås beslaget.</text>
<text x="1210.0" y="759.0" font-family="'IBM Plex Sans','DejaVu Sans',sans-serif" font-size="9.6" font-weight="400" fill="#23262b" text-anchor="start">B.  Skärpa: fokusera laserlinjen skarp vid 710 mm. Blända ner objektivet (F8–F11) för djup­skärpa</text>
<text x="1210.0" y="778.0" font-family="'IBM Plex Sans','DejaVu Sans',sans-serif" font-size="9.6" font-weight="400" fill="#23262b" text-anchor="start">     över mätrange ±25 mm — alt. Scheimpflug-tilt på sensorn för skarp linje i hela djupet.</text>
<text x="1210.0" y="794.0" font-family="'IBM Plex Sans','DejaVu Sans',sans-serif" font-size="9.6" font-weight="400" fill="#23262b" text-anchor="start">C.  Filtret (FS03-BP650, M30.5) skruvas på objektivets front → kameran ser i princip bara lasern.</text>
<text x="1210.0" y="813.0" font-family="'IBM Plex Sans','DejaVu Sans',sans-serif" font-size="9.6" font-weight="400" fill="#23262b" text-anchor="start">D.  Laser = Klass 3B (100 mW) → kåpa + varningsskylt + skyddsglasögon 650 nm. Enable via GPIO/MOSFET.</text>
<text x="1210.0" y="832.0" font-family="'IBM Plex Sans','DejaVu Sans',sans-serif" font-size="9.6" font-weight="400" fill="#23262b" text-anchor="start">E.  Kabel: kamera USB3 → Jetson; laser 5 V + enable. Dragavlastning vid beslaget.</text>
<text x="1210.0" y="851.0" font-family="'IBM Plex Sans','DejaVu Sans',sans-serif" font-size="9.6" font-weight="400" fill="#23262b" text-anchor="start">F.  GRÖN modul (spegelvänd, andra hållet): identisk — byt till 520-laser + 525-filter (FS03-BP525).</text>
<text x="1210.0" y="870.0" font-family="'IBM Plex Sans','DejaVu Sans',sans-serif" font-size="9.6" font-weight="400" fill="#23262b" text-anchor="start">G.  Mått i mm. Ej skalenlig i detalj; huvudvyn 1 px = 1 mm.</text>
<rect x="1196.0" y="978.0" width="488.0" height="168.0" rx="0" fill="#fff" stroke="#23262b" stroke-width="1.6" opacity="1"/>
<line x1="1196.0" y1="1070.0" x2="1684.0" y2="1070.0" stroke="#23262b" stroke-width="1" opacity="1"/>
<line x1="1469.3" y1="978.0" x2="1469.3" y2="1070.0" stroke="#23262b" stroke-width="1" opacity="1"/>
<line x1="1196.0" y1="1024.0" x2="1469.3" y2="1024.0" stroke="#23262b" stroke-width="0.8" opacity="1"/>
<text x="1210.0" y="1000.0" font-family="'IBM Plex Sans','DejaVu Sans',sans-serif" font-size="12.5" font-weight="700" fill="#23262b" text-anchor="start">VIRKESSKANNER — PROFILHUVUD</text>
<text x="1210.0" y="1016.0" font-family="'IBM Plex Sans','DejaVu Sans',sans-serif" font-size="9.5" font-weight="400" fill="#6a6e74" text-anchor="start">Dubbel-oblik · 1 mäthuvud (RÖD 650 nm)</text>
<text x="1210.0" y="1044.0" font-family="'IBM Plex Sans','DejaVu Sans',sans-serif" font-size="9.5" font-weight="400" fill="#23262b" text-anchor="start">Triangulering 30° · WD 710 · baslinje 368</text>
<text x="1210.0" y="1060.0" font-family="'IBM Plex Sans','DejaVu Sans',sans-serif" font-size="9.5" font-weight="400" fill="#6a6e74" text-anchor="start">FOV 500 mm · 0,204 mm/px · Z ~0,05–0,15 mm</text>
<text x="1481.3" y="1000.0" font-family="'IBM Plex Sans','DejaVu Sans',sans-serif" font-size="8.5" font-weight="700" fill="#6a6e74" text-anchor="start">RITN. NR</text>
<text x="1672.0" y="1000.0" font-family="'IBM Plex Mono','DejaVu Sans Mono',monospace" font-size="11" font-weight="700" fill="#23262b" text-anchor="end">PH-650-01</text>
<text x="1481.3" y="1024.0" font-family="'IBM Plex Sans','DejaVu Sans',sans-serif" font-size="8.5" font-weight="700" fill="#6a6e74" text-anchor="start">SKALA</text>
<text x="1672.0" y="1024.0" font-family="'IBM Plex Mono','DejaVu Sans Mono',monospace" font-size="11" font-weight="400" fill="#23262b" text-anchor="end">1:1 (detalj NTS)</text>
<text x="1481.3" y="1048.0" font-family="'IBM Plex Sans','DejaVu Sans',sans-serif" font-size="8.5" font-weight="700" fill="#6a6e74" text-anchor="start">ENHET</text>
<text x="1672.0" y="1048.0" font-family="'IBM Plex Mono','DejaVu Sans Mono',monospace" font-size="11" font-weight="400" fill="#23262b" text-anchor="end">mm</text>
<text x="1210.0" y="1090.0" font-family="'IBM Plex Sans','DejaVu Sans',sans-serif" font-size="9" font-weight="400" fill="#6a6e74" text-anchor="start">Källa: src/hardware.py · verifiera med tools/verify_optics.py</text>
<text x="1210.0" y="1110.0" font-family="'IBM Plex Sans','DejaVu Sans',sans-serif" font-size="9" font-weight="400" fill="#6a6e74" text-anchor="start">Profilkamera/lins/filter databladsbekräftade (Hikrobot · FS03 · MZLaser)</text>
<text x="1210.0" y="1130.0" font-family="'IBM Plex Sans','DejaVu Sans',sans-serif" font-size="9" font-weight="400" fill="#6a6e74" text-anchor="start">Grön modul = spegel, 520-laser + 525-filter</text>
</svg>