<svg xmlns="http://www.w3.org/2000/svg" width="1740" height="1180" viewBox="0 0 1740 1180" font-family="'IBM Plex Sans','DejaVu Sans',sans-serif">
<rect width="1740" height="1180" fill="#f7f6f1"/>
<g opacity="0.6">
<line x1="0.0" y1="0.0" x2="0.0" y2="1180.0" stroke="#e4e2da" stroke-width="0.5" opacity="1"/>
<line x1="40.0" y1="0.0" x2="40.0" y2="1180.0" stroke="#e4e2da" stroke-width="0.5" opacity="1"/>
<line x1="80.0" y1="0.0" x2="80.0" y2="1180.0" stroke="#e4e2da" stroke-width="0.5" opacity="1"/>
<line x1="120.0" y1="0.0" x2="120.0" y2="1180.0" stroke="#e4e2da" stroke-width="0.5" opacity="1"/>
<line x1="160.0" y1="0.0" x2="160.0" y2="1180.0" stroke="#e4e2da" stroke-width="0.5" opacity="1"/>
<line x1="200.0" y1="0.0" x2="200.0" y2="1180.0" stroke="#e4e2da" stroke-width="0.5" opacity="1"/>
<line x1="240.0" y1="0.0" x2="240.0" y2="1180.0" stroke="#e4e2da" stroke-width="0.5" opacity="1"/>
<line x1="280.0" y1="0.0" x2="280.0" y2="1180.0" stroke="#e4e2da" stroke-width="0.5" opacity="1"/>
<line x1="320.0" y1="0.0" x2="320.0" y2="1180.0" stroke="#e4e2da" stroke-width="0.5" opacity="1"/>
<line x1="360.0" y1="0.0" x2="360.0" y2="1180.0" stroke="#e4e2da" stroke-width="0.5" opacity="1"/>
<line x1="400.0" y1="0.0" x2="400.0" y2="1180.0" stroke="#e4e2da" stroke-width="0.5" opacity="1"/>
<line x1="440.0" y1="0.0" x2="440.0" y2="1180.0" stroke="#e4e2da" stroke-width="0.5" opacity="1"/>
<line x1="480.0" y1="0.0" x2="480.0" y2="1180.0" stroke="#e4e2da" stroke-width="0.5" opacity="1"/>
<line x1="520.0" y1="0.0" x2="520.0" y2="1180.0" stroke="#e4e2da" stroke-width="0.5" opacity="1"/>
<line x1="560.0" y1="0.0" x2="560.0" y2="1180.0" stroke="#e4e2da" stroke-width="0.5" opacity="1"/>
<line x1="600.0" y1="0.0" x2="600.0" y2="1180.0" stroke="#e4e2da" stroke-width="0.5" opacity="1"/>
<line x1="640.0" y1="0.0" x2="640.0" y2="1180.0" stroke="#e4e2da" stroke-width="0.5" opacity="1"/>
<line x1="680.0" y1="0.0" x2="680.0" y2="1180.0" stroke="#e4e2da" stroke-width="0.5" opacity="1"/>
<line x1="720.0" y1="0.0" x2="720.0" y2="1180.0" stroke="#e4e2da" stroke-width="0.5" opacity="1"/>
<line x1="760.0" y1="0.0" x2="760.0" y2="1180.0" stroke="#e4e2da" stroke-width="0.5" opacity="1"/>
<line x1="800.0" y1="0.0" x2="800.0" y2="1180.0" stroke="#e4e2da" stroke-width="0.5" opacity="1"/>
<line x1="840.0" y1="0.0" x2="840.0" y2="1180.0" stroke="#e4e2da" stroke-width="0.5" opacity="1"/>
<line x1="880.0" y1="0.0" x2="880.0" y2="1180.0" stroke="#e4e2da" stroke-width="0.5" opacity="1"/>
<line x1="920.0" y1="0.0" x2="920.0" y2="1180.0" stroke="#e4e2da" stroke-width="0.5" opacity="1"/>
<line x1="960.0" y1="0.0" x2="960.0" y2="1180.0" stroke="#e4e2da" stroke-width="0.5" opacity="1"/>
<line x1="1000.0" y1="0.0" x2="1000.0" y2="1180.0" stroke="#e4e2da" stroke-width="0.5" opacity="1"/>
<line x1="1040.0" y1="0.0" x2="1040.0" y2="1180.0" stroke="#e4e2da" stroke-width="0.5" opacity="1"/>
<line x1="1080.0" y1="0.0" x2="1080.0" y2="1180.0" stroke="#e4e2da" stroke-width="0.5" opacity="1"/>
<line x1="1120.0" y1="0.0" x2="1120.0" y2="1180.0" stroke="#e4e2da" stroke-width="0.5" opacity="1"/>
<line x1="1160.0" y1="0.0" x2="1160.0" y2="1180.0" stroke="#e4e2da" stroke-width="0.5" opacity="1"/>
<line x1="1200.0" y1="0.0" x2="1200.0" y2="1180.0" stroke="#e4e2da" stroke-width="0.5" opacity="1"/>
<line x1="1240.0" y1="0.0" x2="1240.0" y2="1180.0" stroke="#e4e2da" stroke-width="0.5" opacity="1"/>
<line x1="1280.0" y1="0.0" x2="1280.0" y2="1180.0" stroke="#e4e2da" stroke-width="0.5" opacity="1"/>
<line x1="1320.0" y1="0.0" x2="1320.0" y2="1180.0" stroke="#e4e2da" stroke-width="0.5" opacity="1"/>
<line x1="1360.0" y1="0.0" x2="1360.0" y2="1180.0" stroke="#e4e2da" stroke-width="0.5" opacity="1"/>
<line x1="1400.0" y1="0.0" x2="1400.0" y2="1180.0" stroke="#e4e2da" stroke-width="0.5" opacity="1"/>
<line x1="1440.0" y1="0.0" x2="1440.0" y2="1180.0" stroke="#e4e2da" stroke-width="0.5" opacity="1"/>
<line x1="1480.0" y1="0.0" x2="1480.0" y2="1180.0" stroke="#e4e2da" stroke-width="0.5" opacity="1"/>
<line x1="1520.0" y1="0.0" x2="1520.0" y2="1180.0" stroke="#e4e2da" stroke-width="0.5" opacity="1"/>
<line x1="1560.0" y1="0.0" x2="1560.0" y2="1180.0" stroke="#e4e2da" stroke-width="0.5" opacity="1"/>
<line x1="1600.0" y1="0.0" x2="1600.0" y2="1180.0" stroke="#e4e2da" stroke-width="0.5" opacity="1"/>
<line x1="1640.0" y1="0.0" x2="1640.0" y2="1180.0" stroke="#e4e2da" stroke-width="0.5" opacity="1"/>
<line x1="1680.0" y1="0.0" x2="1680.0" y2="1180.0" stroke="#e4e2da" stroke-width="0.5" opacity="1"/>
<line x1="1720.0" y1="0.0" x2="1720.0" y2="1180.0" stroke="#e4e2da" stroke-width="0.5" opacity="1"/>
<line x1="0.0" y1="0.0" x2="1740.0" y2="0.0" stroke="#e4e2da" stroke-width="0.5" opacity="1"/>
<line x1="0.0" y1="40.0" x2="1740.0" y2="40.0" stroke="#e4e2da" stroke-width="0.5" opacity="1"/>
<line x1="0.0" y1="80.0" x2="1740.0" y2="80.0" stroke="#e4e2da" stroke-width="0.5" opacity="1"/>
<line x1="0.0" y1="120.0" x2="1740.0" y2="120.0" stroke="#e4e2da" stroke-width="0.5" opacity="1"/>
<line x1="0.0" y1="160.0" x2="1740.0" y2="160.0" stroke="#e4e2da" stroke-width="0.5" opacity="1"/>
<line x1="0.0" y1="200.0" x2="1740.0" y2="200.0" stroke="#e4e2da" stroke-width="0.5" opacity="1"/>
<line x1="0.0" y1="240.0" x2="1740.0" y2="240.0" stroke="#e4e2da" stroke-width="0.5" opacity="1"/>
<line x1="0.0" y1="280.0" x2="1740.0" y2="280.0" stroke="#e4e2da" stroke-width="0.5" opacity="1"/>
<line x1="0.0" y1="320.0" x2="1740.0" y2="320.0" stroke="#e4e2da" stroke-width="0.5" opacity="1"/>
<line x1="0.0" y1="360.0" x2="1740.0" y2="360.0" stroke="#e4e2da" stroke-width="0.5" opacity="1"/>
<line x1="0.0" y1="400.0" x2="1740.0" y2="400.0" stroke="#e4e2da" stroke-width="0.5" opacity="1"/>
<line x1="0.0" y1="440.0" x2="1740.0" y2="440.0" stroke="#e4e2da" stroke-width="0.5" opacity="1"/>
<line x1="0.0" y1="480.0" x2="1740.0" y2="480.0" stroke="#e4e2da" stroke-width="0.5" opacity="1"/>
<line x1="0.0" y1="520.0" x2="1740.0" y2="520.0" stroke="#e4e2da" stroke-width="0.5" opacity="1"/>
<line x1="0.0" y1="560.0" x2="1740.0" y2="560.0" stroke="#e4e2da" stroke-width="0.5" opacity="1"/>
<line x1="0.0" y1="600.0" x2="1740.0" y2="600.0" stroke="#e4e2da" stroke-width="0.5" opacity="1"/>
<line x1="0.0" y1="640.0" x2="1740.0" y2="640.0" stroke="#e4e2da" stroke-width="0.5" opacity="1"/>
<line x1="0.0" y1="680.0" x2="1740.0" y2="680.0" stroke="#e4e2da" stroke-width="0.5" opacity="1"/>
<line x1="0.0" y1="720.0" x2="1740.0" y2="720.0" stroke="#e4e2da" stroke-width="0.5" opacity="1"/>
<line x1="0.0" y1="760.0" x2="1740.0" y2="760.0" stroke="#e4e2da" stroke-width="0.5" opacity="1"/>
<line x1="0.0" y1="800.0" x2="1740.0" y2="800.0" stroke="#e4e2da" stroke-width="0.5" opacity="1"/>
<line x1="0.0" y1="840.0" x2="1740.0" y2="840.0" stroke="#e4e2da" stroke-width="0.5" opacity="1"/>
<line x1="0.0" y1="880.0" x2="1740.0" y2="880.0" stroke="#e4e2da" stroke-width="0.5" opacity="1"/>
<line x1="0.0" y1="920.0" x2="1740.0" y2="920.0" stroke="#e4e2da" stroke-width="0.5" opacity="1"/>
<line x1="0.0" y1="960.0" x2="1740.0" y2="960.0" stroke="#e4e2da" stroke-width="0.5" opacity="1"/>
<line x1="0.0" y1="1000.0" x2="1740.0" y2="1000.0" stroke="#e4e2da" stroke-width="0.5" opacity="1"/>
<line x1="0.0" y1="1040.0" x2="1740.0" y2="1040.0" stroke="#e4e2da" stroke-width="0.5" opacity="1"/>
<line x1="0.0" y1="1080.0" x2="1740.0" y2="1080.0" stroke="#e4e2da" stroke-width="0.5" opacity="1"/>
<line x1="0.0" y1="1120.0" x2="1740.0" y2="1120.0" stroke="#e4e2da" stroke-width="0.5" opacity="1"/>
<line x1="0.0" y1="1160.0" x2="1740.0" y2="1160.0" stroke="#e4e2da" stroke-width="0.5" opacity="1"/>
</g>
<rect x="16.0" y="16.0" width="1708.0" height="1148.0" rx="0" fill="none" stroke="#23262b" stroke-width="2" opacity="1"/>
<rect x="24.0" y="24.0" width="1692.0" height="1132.0" rx="0" fill="none" stroke="#6a6e74" stroke-width="0.8" opacity="1"/>
<text x="44.0" y="60.0" font-family="'IBM Plex Sans','DejaVu Sans',sans-serif" font-size="25" font-weight="700" fill="#23262b" text-anchor="start">PROFILHUVUD — DUBBEL-OBLIK</text>
<text x="44.0" y="86.0" font-family="'IBM Plex Sans','DejaVu Sans',sans-serif" font-size="13.5" font-weight="400" fill="#6a6e74" text-anchor="start">Två moduler skjuter snett INÅT från motsatta håll → topp + BÅDA kanter/vankant, och fyller varandras skuggor. RÖD 650 (vänster) · GRÖN 520 (höger). Lasern sitter oblik — inte lodrät.</text>
<line x1="44.0" y1="100.0" x2="1696.0" y2="100.0" stroke="#23262b" stroke-width="1.4" opacity="1"/>
<rect x="44.0" y="118.0" width="700.0" height="740.0" rx="9" fill="#fff" stroke="#23262b" stroke-width="1.4" opacity="1"/>
<rect x="44.0" y="118.0" width="700.0" height="30.0" rx="9" fill="#23262b" stroke="#23262b" stroke-width="0" opacity="1"/>
<rect x="44.0" y="136.0" width="700.0" height="12.0" rx="0" fill="#23262b" stroke="#23262b" stroke-width="0" opacity="1"/>
<text x="58.0" y="138.0" font-family="'IBM Plex Sans','DejaVu Sans',sans-serif" font-size="13" font-weight="700" fill="#fff" text-anchor="start">MÄTPRINCIP — tvärsnitt (varför två oblika håll)</text>
<polygon points="244.0,648.0 332.0,560.0 368.0,560.0 382.0,548.0 406.0,548.0 420.0,560.0 456.0,560.0 544.0,648.0 544.0,740.0 244.0,740.0" fill="#e9e1cf" stroke="#b9a96f" stroke-width="1.8" opacity="1"/>
<line x1="250.0" y1="578.0" x2="538.0" y2="578.0" stroke="#ddd2b4" stroke-width="1" opacity="1"/>
<line x1="250.0" y1="594.0" x2="538.0" y2="594.0" stroke="#ddd2b4" stroke-width="1" opacity="1"/>
<line x1="250.0" y1="610.0" x2="538.0" y2="610.0" stroke="#ddd2b4" stroke-width="1" opacity="1"/>
<line x1="250.0" y1="626.0" x2="538.0" y2="626.0" stroke="#ddd2b4" stroke-width="1" opacity="1"/>
<line x1="250.0" y1="642.0" x2="538.0" y2="642.0" stroke="#ddd2b4" stroke-width="1" opacity="1"/>
<line x1="250.0" y1="658.0" x2="538.0" y2="658.0" stroke="#ddd2b4" stroke-width="1" opacity="1"/>
<line x1="250.0" y1="674.0" x2="538.0" y2="674.0" stroke="#ddd2b4" stroke-width="1" opacity="1"/>
<line x1="250.0" y1="690.0" x2="538.0" y2="690.0" stroke="#ddd2b4" stroke-width="1" opacity="1"/>
<line x1="250.0" y1="706.0" x2="538.0" y2="706.0" stroke="#ddd2b4" stroke-width="1" opacity="1"/>
<line x1="250.0" y1="722.0" x2="538.0" y2="722.0" stroke="#ddd2b4" stroke-width="1" opacity="1"/>
<text x="394.0" y="730.0" font-family="'IBM Plex Sans','DejaVu Sans',sans-serif" font-size="11" font-weight="700" fill="#8a7d4e" text-anchor="middle">BRÄDA  75 × 45 mm (tvärsnitt)</text>
<rect x="224.0" y="740.0" width="340.0" height="16.0" rx="3" fill="#2b2f35" stroke="#1c1f24" stroke-width="1.2" opacity="1"/>
<text x="394.0" y="774.0" font-family="'IBM Plex Sans','DejaVu Sans',sans-serif" font-size="9.5" font-weight="700" fill="#6a6e74" text-anchor="middle">transportband</text>
<text x="254.0" y="670.0" font-family="'IBM Plex Sans','DejaVu Sans',sans-serif" font-size="9" font-weight="700" fill="#b9a96f" text-anchor="start">vankant V</text>
<text x="534.0" y="670.0" font-family="'IBM Plex Sans','DejaVu Sans',sans-serif" font-size="9" font-weight="700" fill="#b9a96f" text-anchor="end">vankant H</text>
<text x="394.0" y="540.0" font-family="'IBM Plex Sans','DejaVu Sans',sans-serif" font-size="8.5" font-weight="700" fill="#6a6e74" text-anchor="middle">kvist/bula</text>
<line x1="484.0" y1="410.0" x2="484.0" y2="556.0" stroke="#9a9ea4" stroke-width="1" stroke-dasharray="4 4" opacity="1"/>
<line x1="484.0" y1="530.0" x2="484.0" y2="554.0" stroke="#9a9ea4" stroke-width="1" opacity="1"/>
<line x1="484.0" y1="554.0" x2="480.7" y2="546.7" stroke="#9a9ea4" stroke-width="1" opacity="1"/>
<line x1="484.0" y1="554.0" x2="487.3" y2="546.7" stroke="#9a9ea4" stroke-width="1" opacity="1"/>
<text x="490.0" y="440.0" font-family="'IBM Plex Sans','DejaVu Sans',sans-serif" font-size="8.5" font-weight="700" fill="#9a9ea4" text-anchor="start">en LOD-vy ser bara</text>
<text x="490.0" y="453.0" font-family="'IBM Plex Sans','DejaVu Sans',sans-serif" font-size="8.5" font-weight="700" fill="#9a9ea4" text-anchor="start">toppen — missar</text>
<text x="490.0" y="466.0" font-family="'IBM Plex Sans','DejaVu Sans',sans-serif" font-size="8.5" font-weight="700" fill="#9a9ea4" text-anchor="start">vankantens kurva</text>
<line x1="120.0" y1="250.0" x2="252.0" y2="642.0" stroke="#e8542c" stroke-width="2.6" opacity="1"/>
<line x1="120.0" y1="250.0" x2="364.0" y2="558.0" stroke="#e8542c" stroke-width="1.4" opacity="0.55"/>
<line x1="160.0" y1="224.0" x2="262.0" y2="636.0" stroke="#e8542c" stroke-width="1.2" stroke-dasharray="4 3" opacity="1"/>
<polygon points="84.0,234.0 156.0,234.0 156.0,266.0 84.0,266.0" fill="#fde9e3" stroke="#e8542c" stroke-width="1.6" opacity="1"/>
<text x="120.0" y="248.0" font-family="'IBM Plex Sans','DejaVu Sans',sans-serif" font-size="10" font-weight="700" fill="#e8542c" text-anchor="middle">RÖD modul</text>
<text x="120.0" y="262.0" font-family="'IBM Plex Sans','DejaVu Sans',sans-serif" font-size="8" font-weight="400" fill="#23262b" text-anchor="middle">650 nm · oblik</text>
<text x="114.0" y="308.0" font-family="'IBM Plex Sans','DejaVu Sans',sans-serif" font-size="9.5" font-weight="700" fill="#e8542c" text-anchor="start">ser TOPP +</text>
<text x="114.0" y="322.0" font-family="'IBM Plex Sans','DejaVu Sans',sans-serif" font-size="9.5" font-weight="700" fill="#e8542c" text-anchor="start">VÄNSTER vankant</text>
<line x1="252.0" y1="642.0" x2="252.0" y2="558.0" stroke="#9a9ea4" stroke-width="0.7" stroke-dasharray="3 3" opacity="1"/>
<text x="274.0" y="516.0" font-family="'IBM Plex Mono','DejaVu Sans Mono',monospace" font-size="11" font-weight="700" fill="#e8542c" text-anchor="middle">30°</text>
<line x1="668.0" y1="250.0" x2="536.0" y2="642.0" stroke="#2f9e6e" stroke-width="2.6" opacity="1"/>
<line x1="668.0" y1="250.0" x2="424.0" y2="558.0" stroke="#2f9e6e" stroke-width="1.4" opacity="0.55"/>
<line x1="628.0" y1="224.0" x2="526.0" y2="636.0" stroke="#2f9e6e" stroke-width="1.2" stroke-dasharray="4 3" opacity="1"/>
<polygon points="630.0,234.0 706.0,234.0 706.0,266.0 630.0,266.0" fill="#e3f3ea" stroke="#2f9e6e" stroke-width="1.6" opacity="1"/>
<text x="668.0" y="248.0" font-family="'IBM Plex Sans','DejaVu Sans',sans-serif" font-size="10" font-weight="700" fill="#2f9e6e" text-anchor="middle">GRÖN modul</text>
<text x="668.0" y="262.0" font-family="'IBM Plex Sans','DejaVu Sans',sans-serif" font-size="8" font-weight="400" fill="#23262b" text-anchor="middle">520 nm · oblik</text>
<text x="674.0" y="308.0" font-family="'IBM Plex Sans','DejaVu Sans',sans-serif" font-size="9.5" font-weight="700" fill="#2f9e6e" text-anchor="end">ser TOPP +</text>
<text x="674.0" y="322.0" font-family="'IBM Plex Sans','DejaVu Sans',sans-serif" font-size="9.5" font-weight="700" fill="#2f9e6e" text-anchor="end">HÖGER vankant</text>
<line x1="536.0" y1="642.0" x2="536.0" y2="558.0" stroke="#9a9ea4" stroke-width="0.7" stroke-dasharray="3 3" opacity="1"/>
<text x="514.0" y="516.0" font-family="'IBM Plex Mono','DejaVu Sans Mono',monospace" font-size="11" font-weight="700" fill="#2f9e6e" text-anchor="middle">30°</text>
<text x="394.0" y="798.0" font-family="'IBM Plex Sans','DejaVu Sans',sans-serif" font-size="10" font-weight="400" fill="#23262b" text-anchor="middle">Oblikt = man ser 'runt' kanten. Två håll → topp + båda vankanter,</text>
<text x="394.0" y="814.0" font-family="'IBM Plex Sans','DejaVu Sans',sans-serif" font-size="10" font-weight="400" fill="#23262b" text-anchor="middle">och bakom kvist/bula fyller den ena modulen den andras skugga.</text>
<line x1="60.0" y1="836.0" x2="92.0" y2="836.0" stroke="#23262b" stroke-width="2.4" opacity="1"/>
<text x="98.0" y="840.0" font-family="'IBM Plex Sans','DejaVu Sans',sans-serif" font-size="9" font-weight="700" fill="#6a6e74" text-anchor="start">laserblad</text>
<line x1="230.0" y1="836.0" x2="262.0" y2="836.0" stroke="#23262b" stroke-width="1.4" stroke-dasharray="4 3" opacity="1"/>
<text x="268.0" y="840.0" font-family="'IBM Plex Sans','DejaVu Sans',sans-serif" font-size="9" font-weight="700" fill="#6a6e74" text-anchor="start">kamerasikt (triangulering)</text>
<rect x="762.0" y="118.0" width="458.0" height="392.0" rx="9" fill="#fff" stroke="#2f6fb0" stroke-width="1.4" opacity="1"/>
<rect x="762.0" y="118.0" width="458.0" height="30.0" rx="9" fill="#2f6fb0" stroke="#2f6fb0" stroke-width="0" opacity="1"/>
<rect x="762.0" y="136.0" width="458.0" height="12.0" rx="0" fill="#2f6fb0" stroke="#2f6fb0" stroke-width="0" opacity="1"/>
<text x="776.0" y="138.0" font-family="'IBM Plex Sans','DejaVu Sans',sans-serif" font-size="13" font-weight="700" fill="#fff" text-anchor="start">ETT HUVUD — kamera + laser, BÅDA oblika</text>
<rect x="1022.0" y="448.0" width="140.0" height="26.0" rx="0" fill="#e9e1cf" stroke="#b9a96f" stroke-width="1.4" opacity="1"/>
<rect x="1014.0" y="474.0" width="156.0" height="10.0" rx="2" fill="#2b2f35" stroke="#1c1f24" stroke-width="1" opacity="1"/>
<text x="1092.0" y="468.0" font-family="'IBM Plex Sans','DejaVu Sans',sans-serif" font-size="8.5" font-weight="700" fill="#8a7d4e" text-anchor="middle">bräda</text>
<line x1="777.5" y1="194.0" x2="765.0" y2="312.7" stroke="#c3c6ca" stroke-width="7" opacity="1"/>
<line x1="771.3" y1="253.4" x2="771.3" y2="162.0" stroke="#aab0b6" stroke-width="5" opacity="1"/>
<rect x="812.0" y="156.0" width="200.0" height="14.0" rx="2" fill="#c3c6ca" stroke="#aab0b6" stroke-width="1.2" opacity="1"/>
<text x="822.0" y="166.0" font-family="'IBM Plex Sans','DejaVu Sans',sans-serif" font-size="8.5" font-weight="700" fill="#6a6e74" text-anchor="start">portalbalk</text>
<line x1="802.0" y1="328.0" x2="1092.0" y2="448.0" stroke="#e8542c" stroke-width="2.6" opacity="1"/>
<circle cx="1092.0" cy="448.0" r="3.4" fill="#e8542c" stroke="#a8331a" stroke-width="1"/>
<line x1="832.0" y1="238.0" x2="1092.0" y2="448.0" stroke="#8a9099" stroke-width="1.4" stroke-dasharray="5 4" opacity="1"/>
<g transform="translate(832.0,238.0) rotate(38.9)">
<rect x="-4.2" y="-11.2" width="4.2" height="22.4" rx="0" fill="#f6d9cf" stroke="#e8542c" stroke-width="1.2" opacity="1"/>
<rect x="-32.2" y="-11.2" width="28.0" height="22.4" rx="2" fill="#d9dde1" stroke="#9aa0a6" stroke-width="1.2" opacity="1"/>
<rect x="-52.5" y="-10.1" width="20.3" height="20.3" rx="2" fill="#e9edf1" stroke="#7e8489" stroke-width="1.4" opacity="1"/>
</g>
<g transform="translate(802.0,328.0) rotate(22.5)">
<rect x="-69.3" y="-8.1" width="69.3" height="16.2" rx="2" fill="#d7b7b0" stroke="#9a5a52" stroke-width="1.2" opacity="1"/>
</g>
<text x="850.0" y="230.0" font-family="'IBM Plex Sans','DejaVu Sans',sans-serif" font-size="8.5" font-weight="700" fill="#23262b" text-anchor="start">kamera+lins+filter (oblik)</text>
<text x="796.0" y="352.0" font-family="'IBM Plex Sans','DejaVu Sans',sans-serif" font-size="8.5" font-weight="700" fill="#e8542c" text-anchor="start">linjelaser (oblik)</text>
<line x1="832.0" y1="238.0" x2="813.1" y2="261.3" stroke="#23262b" stroke-width="0.7" opacity="1"/>
<line x1="1092.0" y1="448.0" x2="1073.1" y2="471.3" stroke="#23262b" stroke-width="0.7" opacity="1"/>
<line x1="813.1" y1="261.3" x2="1073.1" y2="471.3" stroke="#23262b" stroke-width="1" opacity="1"/>
<line x1="1073.1" y1="471.3" x2="1065.4" y2="469.3" stroke="#23262b" stroke-width="1" opacity="1"/>
<line x1="1073.1" y1="471.3" x2="1069.5" y2="464.2" stroke="#23262b" stroke-width="1" opacity="1"/>
<line x1="1073.1" y1="471.3" x2="813.1" y2="261.3" stroke="#23262b" stroke-width="1" opacity="1"/>
<line x1="813.1" y1="261.3" x2="820.9" y2="263.4" stroke="#23262b" stroke-width="1" opacity="1"/>
<line x1="813.1" y1="261.3" x2="816.8" y2="268.5" stroke="#23262b" stroke-width="1" opacity="1"/>
<rect x="925.1" y="359.3" width="36.0" height="12.5" rx="0" fill="#f7f6f1" stroke="none" stroke-width="0" opacity="0.92"/>
<text x="943.1" y="369.7" font-family="'IBM Plex Mono','DejaVu Sans Mono',monospace" font-size="10" font-weight="700" fill="#23262b" text-anchor="middle" transform="rotate(38.927543592792304 943.1 369.7)">WD 710</text>
<line x1="1092.0" y1="448.0" x2="832.0" y2="238.0" stroke="#9a9ea4" stroke-width="0.5" opacity="1"/>
<line x1="1092.0" y1="448.0" x2="802.0" y2="328.0" stroke="#9a9ea4" stroke-width="0.5" opacity="1"/>
<path d="M 1056.2 419.1 A 46 46 0 0 1 1049.5 430.4" fill="none" stroke="#23262b" stroke-width="1.2"/>
<text x="1048.0" y="394.0" font-family="'IBM Plex Mono','DejaVu Sans Mono',monospace" font-size="11" font-weight="700" fill="#23262b" text-anchor="middle">θ=30°</text>
<text x="776.0" y="496.0" font-family="'IBM Plex Sans','DejaVu Sans',sans-serif" font-size="9" font-weight="400" fill="#6a6e74" text-anchor="start">Baslinje kamera↔laser ~368 mm · obliquity 30° · θ 30° · ej skalenlig</text>
<rect x="762.0" y="524.0" width="458.0" height="294.0" rx="9" fill="#fff" stroke="#2f6fb0" stroke-width="1.4" opacity="1"/>
<rect x="762.0" y="524.0" width="458.0" height="30.0" rx="9" fill="#2f6fb0" stroke="#2f6fb0" stroke-width="0" opacity="1"/>
<rect x="762.0" y="542.0" width="458.0" height="12.0" rx="0" fill="#2f6fb0" stroke="#2f6fb0" stroke-width="0" opacity="1"/>
<text x="776.0" y="544.0" font-family="'IBM Plex Sans','DejaVu Sans',sans-serif" font-size="13" font-weight="700" fill="#fff" text-anchor="start">DETALJ — optisk stack  (2,4×)</text>
<rect x="820.0" y="639.2" width="69.6" height="69.6" rx="3" fill="#e9edf1" stroke="#7e8489" stroke-width="1.8" opacity="1"/>
<rect x="804.0" y="658.0" width="16.0" height="12.0" rx="2" fill="#2b2f35" stroke="#1c1f24" stroke-width="1.2" opacity="1"/>
<text x="812.0" y="653.0" font-family="'IBM Plex Sans','DejaVu Sans',sans-serif" font-size="7.5" font-weight="700" fill="#6a6e74" text-anchor="middle">USB3</text>
<rect x="804.0" y="678.0" width="16.0" height="11.0" rx="2" fill="#caa64a" stroke="#8a6510" stroke-width="1.2" opacity="1"/>
<text x="812.0" y="699.0" font-family="'IBM Plex Sans','DejaVu Sans',sans-serif" font-size="7.5" font-weight="700" fill="#6a6e74" text-anchor="middle">5V/IO</text>
<text x="854.8" y="725.8" font-family="'IBM Plex Sans','DejaVu Sans',sans-serif" font-size="9" font-weight="700" fill="#23262b" text-anchor="middle">① MV-CS050-10UM · C-mount</text>
<rect x="889.6" y="662.0" width="9.0" height="24.0" rx="0" fill="#aab0b6" stroke="#8a9099" stroke-width="1.4" opacity="1"/>
<rect x="898.6" y="635.6" width="96.0" height="76.8" rx="3" fill="#d9dde1" stroke="#9aa0a6" stroke-width="1.8" opacity="1"/>
<line x1="906.6" y1="635.6" x2="906.6" y2="712.4" stroke="#c2c7cc" stroke-width="0.8" opacity="1"/>
<line x1="921.6" y1="635.6" x2="921.6" y2="712.4" stroke="#c2c7cc" stroke-width="0.8" opacity="1"/>
<line x1="936.6" y1="635.6" x2="936.6" y2="712.4" stroke="#c2c7cc" stroke-width="0.8" opacity="1"/>
<line x1="951.6" y1="635.6" x2="951.6" y2="712.4" stroke="#c2c7cc" stroke-width="0.8" opacity="1"/>
<line x1="966.6" y1="635.6" x2="966.6" y2="712.4" stroke="#c2c7cc" stroke-width="0.8" opacity="1"/>
<line x1="981.6" y1="635.6" x2="981.6" y2="712.4" stroke="#c2c7cc" stroke-width="0.8" opacity="1"/>
<text x="946.6" y="626.6" font-family="'IBM Plex Sans','DejaVu Sans',sans-serif" font-size="9" font-weight="700" fill="#23262b" text-anchor="middle">② MVL-MF1228M-8MP · 12 mm</text>
<text x="946.6" y="729.4" font-family="'IBM Plex Sans','DejaVu Sans',sans-serif" font-size="8" font-weight="700" fill="#6a6e74" text-anchor="middle">fokus + iris F2.8–16</text>
<text x="995.6" y="611.6" font-family="'IBM Plex Sans','DejaVu Sans',sans-serif" font-size="8.5" font-weight="700" fill="#2f6fb0" text-anchor="middle">M30.5×0.5</text>
<rect x="994.6" y="635.6" width="14.4" height="76.8" rx="2" fill="#f6d9cf" stroke="#e8542c" stroke-width="1.9" opacity="1"/>
<text x="1017.0" y="672.0" font-family="'IBM Plex Sans','DejaVu Sans',sans-serif" font-size="9.5" font-weight="700" fill="#e8542c" text-anchor="start">③ FS03-BP650</text>
<text x="1017.0" y="686.0" font-family="'IBM Plex Sans','DejaVu Sans',sans-serif" font-size="8" font-weight="700" fill="#6a6e74" text-anchor="start">650 nm BP</text>
<line x1="1087.0" y1="718.0" x2="1017.0" y2="680.0" stroke="#e8542c" stroke-width="1.5" opacity="1"/>
<line x1="1017.0" y1="680.0" x2="1025.0" y2="680.6" stroke="#e8542c" stroke-width="1.5" opacity="1"/>
<line x1="1017.0" y1="680.0" x2="1021.9" y2="686.4" stroke="#e8542c" stroke-width="1.5" opacity="1"/>
<text x="1033.0" y="730.0" font-family="'IBM Plex Sans','DejaVu Sans',sans-serif" font-size="8.5" font-weight="700" fill="#e8542c" text-anchor="start">laser in</text>
<text x="778.0" y="805.0" font-family="'IBM Plex Sans','DejaVu Sans',sans-serif" font-size="8.7" font-weight="400" fill="#6a6e74" text-anchor="start">Filtret på objektivets front → mono-kameran ser i princip BARA laserlinjen.</text>
<rect x="1244.0" y="118.0" width="452.0" height="244.0" rx="9" fill="#fff" stroke="#23262b" stroke-width="1.4" opacity="1"/>
<rect x="1244.0" y="118.0" width="452.0" height="30.0" rx="9" fill="#23262b" stroke="#23262b" stroke-width="0" opacity="1"/>
<rect x="1244.0" y="136.0" width="452.0" height="12.0" rx="0" fill="#23262b" stroke="#23262b" stroke-width="0" opacity="1"/>
<text x="1258.0" y="138.0" font-family="'IBM Plex Sans','DejaVu Sans',sans-serif" font-size="13" font-weight="700" fill="#fff" text-anchor="start">KOMPONENTER (per huvud)</text>
<circle cx="1266.0" cy="164.0" r="12.0" fill="#fff" stroke="#23262b" stroke-width="1.6"/>
<text x="1266.0" y="168.5" font-family="'IBM Plex Sans','DejaVu Sans',sans-serif" font-size="12.5" font-weight="700" fill="#23262b" text-anchor="middle">1</text>
<text x="1288.0" y="158.0" font-family="'IBM Plex Sans','DejaVu Sans',sans-serif" font-size="11.5" font-weight="700" fill="#6a6e74" text-anchor="start">Profilkamera</text>
<text x="1288.0" y="174.0" font-family="'IBM Plex Sans','DejaVu Sans',sans-serif" font-size="11.5" font-weight="700" fill="#23262b" text-anchor="start">Hikrobot MV-CS050-10UM</text>
<text x="1288.0" y="188.0" font-family="'IBM Plex Sans','DejaVu Sans',sans-serif" font-size="9.5" font-weight="400" fill="#6a6e74" text-anchor="start">mono, USB3, 2/3″ IMX264, C-mount</text>
<circle cx="1266.0" cy="206.0" r="12.0" fill="#fff" stroke="#7e8489" stroke-width="1.6"/>
<text x="1266.0" y="210.5" font-family="'IBM Plex Sans','DejaVu Sans',sans-serif" font-size="12.5" font-weight="700" fill="#7e8489" text-anchor="middle">2</text>
<text x="1288.0" y="200.0" font-family="'IBM Plex Sans','DejaVu Sans',sans-serif" font-size="11.5" font-weight="700" fill="#6a6e74" text-anchor="start">Objektiv</text>
<text x="1288.0" y="216.0" font-family="'IBM Plex Sans','DejaVu Sans',sans-serif" font-size="11.5" font-weight="700" fill="#23262b" text-anchor="start">HIKROBOT MVL-MF1228M-8MP</text>
<text x="1288.0" y="230.0" font-family="'IBM Plex Sans','DejaVu Sans',sans-serif" font-size="9.5" font-weight="400" fill="#6a6e74" text-anchor="start">12 mm F2.8, C-mount, M30.5-gänga</text>
<circle cx="1266.0" cy="248.0" r="12.0" fill="#fff" stroke="#e8542c" stroke-width="1.6"/>
<text x="1266.0" y="252.5" font-family="'IBM Plex Sans','DejaVu Sans',sans-serif" font-size="12.5" font-weight="700" fill="#e8542c" text-anchor="middle">3</text>
<text x="1288.0" y="242.0" font-family="'IBM Plex Sans','DejaVu Sans',sans-serif" font-size="11.5" font-weight="700" fill="#6a6e74" text-anchor="start">Bandpassfilter</text>
<text x="1288.0" y="258.0" font-family="'IBM Plex Sans','DejaVu Sans',sans-serif" font-size="11.5" font-weight="700" fill="#23262b" text-anchor="start">FS03-BP650  (grön: BP525)</text>
<text x="1288.0" y="272.0" font-family="'IBM Plex Sans','DejaVu Sans',sans-serif" font-size="9.5" font-weight="400" fill="#6a6e74" text-anchor="start">650 nm, FWHM 40, M30.5×0.5</text>
<circle cx="1266.0" cy="290.0" r="12.0" fill="#fff" stroke="#e8542c" stroke-width="1.6"/>
<text x="1266.0" y="294.5" font-family="'IBM Plex Sans','DejaVu Sans',sans-serif" font-size="12.5" font-weight="700" fill="#e8542c" text-anchor="middle">4</text>
<text x="1288.0" y="284.0" font-family="'IBM Plex Sans','DejaVu Sans',sans-serif" font-size="11.5" font-weight="700" fill="#6a6e74" text-anchor="start">Linjelaser</text>
<text x="1288.0" y="300.0" font-family="'IBM Plex Sans','DejaVu Sans',sans-serif" font-size="11.5" font-weight="700" fill="#23262b" text-anchor="start">MZLaser AJPWHF5638</text>
<text x="1288.0" y="314.0" font-family="'IBM Plex Sans','DejaVu Sans',sans-serif" font-size="9.5" font-weight="400" fill="#6a6e74" text-anchor="start">638 nm Powell, 45°, 100 mW, 5 V</text>
<circle cx="1266.0" cy="332.0" r="12.0" fill="#fff" stroke="#6a6e74" stroke-width="1.6"/>
<text x="1266.0" y="336.5" font-family="'IBM Plex Sans','DejaVu Sans',sans-serif" font-size="12.5" font-weight="700" fill="#6a6e74" text-anchor="middle">5</text>
<text x="1288.0" y="326.0" font-family="'IBM Plex Sans','DejaVu Sans',sans-serif" font-size="11.5" font-weight="700" fill="#6a6e74" text-anchor="start">Vinkelbeslag</text>
<text x="1288.0" y="342.0" font-family="'IBM Plex Sans','DejaVu Sans',sans-serif" font-size="11.5" font-weight="700" fill="#23262b" text-anchor="start">alu — låser kamera+laser oblikt</text>
<text x="1288.0" y="356.0" font-family="'IBM Plex Sans','DejaVu Sans',sans-serif" font-size="9.5" font-weight="400" fill="#6a6e74" text-anchor="start">obliquity 30° · triangulering 30°</text>
<rect x="1244.0" y="376.0" width="452.0" height="132.0" rx="9" fill="#fff" stroke="#2f6fb0" stroke-width="1.4" opacity="1"/>
<rect x="1244.0" y="376.0" width="452.0" height="30.0" rx="9" fill="#2f6fb0" stroke="#2f6fb0" stroke-width="0" opacity="1"/>
<rect x="1244.0" y="394.0" width="452.0" height="12.0" rx="0" fill="#2f6fb0" stroke="#2f6fb0" stroke-width="0" opacity="1"/>
<text x="1258.0" y="396.0" font-family="'IBM Plex Sans','DejaVu Sans',sans-serif" font-size="13" font-weight="700" fill="#fff" text-anchor="start">MÅTT &amp; GEOMETRI</text>
<text x="1260.0" y="412.0" font-family="'IBM Plex Sans','DejaVu Sans',sans-serif" font-size="10.5" font-weight="400" fill="#23262b" text-anchor="start">Arbetsavstånd WD (slant)</text>
<text x="1680.0" y="412.0" font-family="'IBM Plex Mono','DejaVu Sans Mono',monospace" font-size="11" font-weight="700" fill="#23262b" text-anchor="end">710 mm</text>
<text x="1260.0" y="431.0" font-family="'IBM Plex Sans','DejaVu Sans',sans-serif" font-size="10.5" font-weight="400" fill="#23262b" text-anchor="start">Obliquity (laser+kamera fr. lod)</text>
<text x="1680.0" y="431.0" font-family="'IBM Plex Mono','DejaVu Sans Mono',monospace" font-size="11" font-weight="700" fill="#23262b" text-anchor="end">30°</text>
<text x="1260.0" y="450.0" font-family="'IBM Plex Sans','DejaVu Sans',sans-serif" font-size="10.5" font-weight="400" fill="#23262b" text-anchor="start">Trianguleringsvinkel θ</text>
<text x="1680.0" y="450.0" font-family="'IBM Plex Mono','DejaVu Sans Mono',monospace" font-size="11" font-weight="700" fill="#23262b" text-anchor="end">30°</text>
<text x="1260.0" y="469.0" font-family="'IBM Plex Sans','DejaVu Sans',sans-serif" font-size="10.5" font-weight="400" fill="#23262b" text-anchor="start">Baslinje kamera↔laser</text>
<text x="1680.0" y="469.0" font-family="'IBM Plex Mono','DejaVu Sans Mono',monospace" font-size="11" font-weight="700" fill="#23262b" text-anchor="end">368 mm</text>
<text x="1260.0" y="488.0" font-family="'IBM Plex Sans','DejaVu Sans',sans-serif" font-size="10.5" font-weight="400" fill="#23262b" text-anchor="start">Laser Powell-fläkt → linje</text>
<text x="1680.0" y="488.0" font-family="'IBM Plex Mono','DejaVu Sans Mono',monospace" font-size="11" font-weight="700" fill="#23262b" text-anchor="end">45° → 500 mm</text>
<rect x="1244.0" y="522.0" width="452.0" height="296.0" rx="9" fill="#fff" stroke="#23262b" stroke-width="1.4" opacity="1"/>
<rect x="1244.0" y="522.0" width="452.0" height="30.0" rx="9" fill="#23262b" stroke="#23262b" stroke-width="0" opacity="1"/>
<rect x="1244.0" y="540.0" width="452.0" height="12.0" rx="0" fill="#23262b" stroke="#23262b" stroke-width="0" opacity="1"/>
<text x="1258.0" y="542.0" font-family="'IBM Plex Sans','DejaVu Sans',sans-serif" font-size="13" font-weight="700" fill="#fff" text-anchor="start">NOTER</text>
<text x="1258.0" y="550.0" font-family="'IBM Plex Sans','DejaVu Sans',sans-serif" font-size="9.5" font-weight="400" fill="#23262b" text-anchor="start">A.  Lasern sitter OBLIKT (~30° fr. lod) och skjuter INÅT → träffar topp + den</text>
<text x="1258.0" y="568.0" font-family="'IBM Plex Sans','DejaVu Sans',sans-serif" font-size="9.5" font-weight="400" fill="#23262b" text-anchor="start">     närmaste kanten/vankanten. En lodrät laser hade bara sett toppen.</text>
<text x="1258.0" y="583.0" font-family="'IBM Plex Sans','DejaVu Sans',sans-serif" font-size="9.5" font-weight="400" fill="#23262b" text-anchor="start">B.  Två moduler från motsatta håll = topp + BÅDA vankanter, och den ena fyller</text>
<text x="1258.0" y="601.0" font-family="'IBM Plex Sans','DejaVu Sans',sans-serif" font-size="9.5" font-weight="400" fill="#23262b" text-anchor="start">     den andras skugga bakom kvist/bula. Det är hela syftet med dubbel-oblik.</text>
<text x="1258.0" y="616.0" font-family="'IBM Plex Sans','DejaVu Sans',sans-serif" font-size="9.5" font-weight="400" fill="#23262b" text-anchor="start">C.  Kamera + laser i samma huvud, vinklade mot varandra (θ = 30°) → höjd via</text>
<text x="1258.0" y="634.0" font-family="'IBM Plex Sans','DejaVu Sans',sans-serif" font-size="9.5" font-weight="400" fill="#23262b" text-anchor="start">     triangulering. Rikta så bägge KONVERGERAR på samma laserlinje vid WD 710.</text>
<text x="1258.0" y="649.0" font-family="'IBM Plex Sans','DejaVu Sans',sans-serif" font-size="9.5" font-weight="400" fill="#23262b" text-anchor="start">D.  Skärpa: laserlinjen skarp vid 710 mm; blända F8–F11 för djup (alt. Scheimpflug).</text>
<text x="1258.0" y="667.0" font-family="'IBM Plex Sans','DejaVu Sans',sans-serif" font-size="9.5" font-weight="400" fill="#23262b" text-anchor="start">E.  Filter FS03-BP650 (M30.5) på objektivfronten. Laser Klass 3B → glasögon + kåpa.</text>
<text x="1258.0" y="685.0" font-family="'IBM Plex Sans','DejaVu Sans',sans-serif" font-size="9.5" font-weight="400" fill="#23262b" text-anchor="start">F.  GRÖN modul = spegel: 520-laser + 525-filter (FS03-BP525). Mått i mm.</text>
<rect x="1244.0" y="832.0" width="452.0" height="168.0" rx="0" fill="#fff" stroke="#23262b" stroke-width="1.6" opacity="1"/>
<line x1="1244.0" y1="924.0" x2="1696.0" y2="924.0" stroke="#23262b" stroke-width="1" opacity="1"/>
<line x1="1497.1" y1="832.0" x2="1497.1" y2="924.0" stroke="#23262b" stroke-width="1" opacity="1"/>
<line x1="1244.0" y1="878.0" x2="1497.1" y2="878.0" stroke="#23262b" stroke-width="0.8" opacity="1"/>
<text x="1258.0" y="854.0" font-family="'IBM Plex Sans','DejaVu Sans',sans-serif" font-size="12.5" font-weight="700" fill="#23262b" text-anchor="start">VIRKESSKANNER — PROFILHUVUD</text>
<text x="1258.0" y="870.0" font-family="'IBM Plex Sans','DejaVu Sans',sans-serif" font-size="9.5" font-weight="400" fill="#6a6e74" text-anchor="start">Dubbel-oblik · RÖD 650 (1 av 2)</text>
<text x="1258.0" y="898.0" font-family="'IBM Plex Sans','DejaVu Sans',sans-serif" font-size="9.5" font-weight="400" fill="#23262b" text-anchor="start">Oblik 30° · θ 30° · WD 710 · baslinje 368</text>
<text x="1258.0" y="914.0" font-family="'IBM Plex Sans','DejaVu Sans',sans-serif" font-size="9.5" font-weight="400" fill="#6a6e74" text-anchor="start">Topp + båda vankanter · Z ~0,05–0,15 mm</text>
<text x="1509.1" y="854.0" font-family="'IBM Plex Sans','DejaVu Sans',sans-serif" font-size="8.5" font-weight="700" fill="#6a6e74" text-anchor="start">RITN. NR</text>
<text x="1684.0" y="854.0" font-family="'IBM Plex Mono','DejaVu Sans Mono',monospace" font-size="11" font-weight="700" fill="#23262b" text-anchor="end">PH-650-02</text>
<text x="1509.1" y="878.0" font-family="'IBM Plex Sans','DejaVu Sans',sans-serif" font-size="8.5" font-weight="700" fill="#6a6e74" text-anchor="start">SKALA</text>
<text x="1684.0" y="878.0" font-family="'IBM Plex Mono','DejaVu Sans Mono',monospace" font-size="11" font-weight="400" fill="#23262b" text-anchor="end">NTS</text>
<text x="1509.1" y="902.0" font-family="'IBM Plex Sans','DejaVu Sans',sans-serif" font-size="8.5" font-weight="700" fill="#6a6e74" text-anchor="start">ENHET</text>
<text x="1684.0" y="902.0" font-family="'IBM Plex Mono','DejaVu Sans Mono',monospace" font-size="11" font-weight="400" fill="#23262b" text-anchor="end">mm</text>
<text x="1258.0" y="1018.0" font-family="'IBM Plex Sans','DejaVu Sans',sans-serif" font-size="9" font-weight="400" fill="#6a6e74" text-anchor="start">Databladsbekräftat (Hikrobot · FS03 · MZLaser) · src/hardware.py</text>
<text x="1258.0" y="1038.0" font-family="'IBM Plex Sans','DejaVu Sans',sans-serif" font-size="9" font-weight="400" fill="#6a6e74" text-anchor="start">Verifiera: tools/verify_optics.py</text>
</svg>