<svg xmlns="http://www.w3.org/2000/svg" width="1700" height="1460" viewBox="0 0 1700 1460" font-family="'IBM Plex Sans','DejaVu Sans',sans-serif">
<rect width="1700" height="1460" fill="#f7f6f1"/>
<g opacity="0.5">
<line x1="0.0" y1="0.0" x2="0.0" y2="1460.0" stroke="#dedcd3" stroke-width="0.5" opacity="1"/>
<line x1="40.0" y1="0.0" x2="40.0" y2="1460.0" stroke="#dedcd3" stroke-width="0.5" opacity="1"/>
<line x1="80.0" y1="0.0" x2="80.0" y2="1460.0" stroke="#dedcd3" stroke-width="0.5" opacity="1"/>
<line x1="120.0" y1="0.0" x2="120.0" y2="1460.0" stroke="#dedcd3" stroke-width="0.5" opacity="1"/>
<line x1="160.0" y1="0.0" x2="160.0" y2="1460.0" stroke="#dedcd3" stroke-width="0.5" opacity="1"/>
<line x1="200.0" y1="0.0" x2="200.0" y2="1460.0" stroke="#dedcd3" stroke-width="0.5" opacity="1"/>
<line x1="240.0" y1="0.0" x2="240.0" y2="1460.0" stroke="#dedcd3" stroke-width="0.5" opacity="1"/>
<line x1="280.0" y1="0.0" x2="280.0" y2="1460.0" stroke="#dedcd3" stroke-width="0.5" opacity="1"/>
<line x1="320.0" y1="0.0" x2="320.0" y2="1460.0" stroke="#dedcd3" stroke-width="0.5" opacity="1"/>
<line x1="360.0" y1="0.0" x2="360.0" y2="1460.0" stroke="#dedcd3" stroke-width="0.5" opacity="1"/>
<line x1="400.0" y1="0.0" x2="400.0" y2="1460.0" stroke="#dedcd3" stroke-width="0.5" opacity="1"/>
<line x1="440.0" y1="0.0" x2="440.0" y2="1460.0" stroke="#dedcd3" stroke-width="0.5" opacity="1"/>
<line x1="480.0" y1="0.0" x2="480.0" y2="1460.0" stroke="#dedcd3" stroke-width="0.5" opacity="1"/>
<line x1="520.0" y1="0.0" x2="520.0" y2="1460.0" stroke="#dedcd3" stroke-width="0.5" opacity="1"/>
<line x1="560.0" y1="0.0" x2="560.0" y2="1460.0" stroke="#dedcd3" stroke-width="0.5" opacity="1"/>
<line x1="600.0" y1="0.0" x2="600.0" y2="1460.0" stroke="#dedcd3" stroke-width="0.5" opacity="1"/>
<line x1="640.0" y1="0.0" x2="640.0" y2="1460.0" stroke="#dedcd3" stroke-width="0.5" opacity="1"/>
<line x1="680.0" y1="0.0" x2="680.0" y2="1460.0" stroke="#dedcd3" stroke-width="0.5" opacity="1"/>
<line x1="720.0" y1="0.0" x2="720.0" y2="1460.0" stroke="#dedcd3" stroke-width="0.5" opacity="1"/>
<line x1="760.0" y1="0.0" x2="760.0" y2="1460.0" stroke="#dedcd3" stroke-width="0.5" opacity="1"/>
<line x1="800.0" y1="0.0" x2="800.0" y2="1460.0" stroke="#dedcd3" stroke-width="0.5" opacity="1"/>
<line x1="840.0" y1="0.0" x2="840.0" y2="1460.0" stroke="#dedcd3" stroke-width="0.5" opacity="1"/>
<line x1="880.0" y1="0.0" x2="880.0" y2="1460.0" stroke="#dedcd3" stroke-width="0.5" opacity="1"/>
<line x1="920.0" y1="0.0" x2="920.0" y2="1460.0" stroke="#dedcd3" stroke-width="0.5" opacity="1"/>
<line x1="960.0" y1="0.0" x2="960.0" y2="1460.0" stroke="#dedcd3" stroke-width="0.5" opacity="1"/>
<line x1="1000.0" y1="0.0" x2="1000.0" y2="1460.0" stroke="#dedcd3" stroke-width="0.5" opacity="1"/>
<line x1="1040.0" y1="0.0" x2="1040.0" y2="1460.0" stroke="#dedcd3" stroke-width="0.5" opacity="1"/>
<line x1="1080.0" y1="0.0" x2="1080.0" y2="1460.0" stroke="#dedcd3" stroke-width="0.5" opacity="1"/>
<line x1="1120.0" y1="0.0" x2="1120.0" y2="1460.0" stroke="#dedcd3" stroke-width="0.5" opacity="1"/>
<line x1="1160.0" y1="0.0" x2="1160.0" y2="1460.0" stroke="#dedcd3" stroke-width="0.5" opacity="1"/>
<line x1="1200.0" y1="0.0" x2="1200.0" y2="1460.0" stroke="#dedcd3" stroke-width="0.5" opacity="1"/>
<line x1="1240.0" y1="0.0" x2="1240.0" y2="1460.0" stroke="#dedcd3" stroke-width="0.5" opacity="1"/>
<line x1="1280.0" y1="0.0" x2="1280.0" y2="1460.0" stroke="#dedcd3" stroke-width="0.5" opacity="1"/>
<line x1="1320.0" y1="0.0" x2="1320.0" y2="1460.0" stroke="#dedcd3" stroke-width="0.5" opacity="1"/>
<line x1="1360.0" y1="0.0" x2="1360.0" y2="1460.0" stroke="#dedcd3" stroke-width="0.5" opacity="1"/>
<line x1="1400.0" y1="0.0" x2="1400.0" y2="1460.0" stroke="#dedcd3" stroke-width="0.5" opacity="1"/>
<line x1="1440.0" y1="0.0" x2="1440.0" y2="1460.0" stroke="#dedcd3" stroke-width="0.5" opacity="1"/>
<line x1="1480.0" y1="0.0" x2="1480.0" y2="1460.0" stroke="#dedcd3" stroke-width="0.5" opacity="1"/>
<line x1="1520.0" y1="0.0" x2="1520.0" y2="1460.0" stroke="#dedcd3" stroke-width="0.5" opacity="1"/>
<line x1="1560.0" y1="0.0" x2="1560.0" y2="1460.0" stroke="#dedcd3" stroke-width="0.5" opacity="1"/>
<line x1="1600.0" y1="0.0" x2="1600.0" y2="1460.0" stroke="#dedcd3" stroke-width="0.5" opacity="1"/>
<line x1="1640.0" y1="0.0" x2="1640.0" y2="1460.0" stroke="#dedcd3" stroke-width="0.5" opacity="1"/>
<line x1="1680.0" y1="0.0" x2="1680.0" y2="1460.0" stroke="#dedcd3" stroke-width="0.5" opacity="1"/>
<line x1="0.0" y1="0.0" x2="1700.0" y2="0.0" stroke="#dedcd3" stroke-width="0.5" opacity="1"/>
<line x1="0.0" y1="40.0" x2="1700.0" y2="40.0" stroke="#dedcd3" stroke-width="0.5" opacity="1"/>
<line x1="0.0" y1="80.0" x2="1700.0" y2="80.0" stroke="#dedcd3" stroke-width="0.5" opacity="1"/>
<line x1="0.0" y1="120.0" x2="1700.0" y2="120.0" stroke="#dedcd3" stroke-width="0.5" opacity="1"/>
<line x1="0.0" y1="160.0" x2="1700.0" y2="160.0" stroke="#dedcd3" stroke-width="0.5" opacity="1"/>
<line x1="0.0" y1="200.0" x2="1700.0" y2="200.0" stroke="#dedcd3" stroke-width="0.5" opacity="1"/>
<line x1="0.0" y1="240.0" x2="1700.0" y2="240.0" stroke="#dedcd3" stroke-width="0.5" opacity="1"/>
<line x1="0.0" y1="280.0" x2="1700.0" y2="280.0" stroke="#dedcd3" stroke-width="0.5" opacity="1"/>
<line x1="0.0" y1="320.0" x2="1700.0" y2="320.0" stroke="#dedcd3" stroke-width="0.5" opacity="1"/>
<line x1="0.0" y1="360.0" x2="1700.0" y2="360.0" stroke="#dedcd3" stroke-width="0.5" opacity="1"/>
<line x1="0.0" y1="400.0" x2="1700.0" y2="400.0" stroke="#dedcd3" stroke-width="0.5" opacity="1"/>
<line x1="0.0" y1="440.0" x2="1700.0" y2="440.0" stroke="#dedcd3" stroke-width="0.5" opacity="1"/>
<line x1="0.0" y1="480.0" x2="1700.0" y2="480.0" stroke="#dedcd3" stroke-width="0.5" opacity="1"/>
<line x1="0.0" y1="520.0" x2="1700.0" y2="520.0" stroke="#dedcd3" stroke-width="0.5" opacity="1"/>
<line x1="0.0" y1="560.0" x2="1700.0" y2="560.0" stroke="#dedcd3" stroke-width="0.5" opacity="1"/>
<line x1="0.0" y1="600.0" x2="1700.0" y2="600.0" stroke="#dedcd3" stroke-width="0.5" opacity="1"/>
<line x1="0.0" y1="640.0" x2="1700.0" y2="640.0" stroke="#dedcd3" stroke-width="0.5" opacity="1"/>
<line x1="0.0" y1="680.0" x2="1700.0" y2="680.0" stroke="#dedcd3" stroke-width="0.5" opacity="1"/>
<line x1="0.0" y1="720.0" x2="1700.0" y2="720.0" stroke="#dedcd3" stroke-width="0.5" opacity="1"/>
<line x1="0.0" y1="760.0" x2="1700.0" y2="760.0" stroke="#dedcd3" stroke-width="0.5" opacity="1"/>
<line x1="0.0" y1="800.0" x2="1700.0" y2="800.0" stroke="#dedcd3" stroke-width="0.5" opacity="1"/>
<line x1="0.0" y1="840.0" x2="1700.0" y2="840.0" stroke="#dedcd3" stroke-width="0.5" opacity="1"/>
<line x1="0.0" y1="880.0" x2="1700.0" y2="880.0" stroke="#dedcd3" stroke-width="0.5" opacity="1"/>
<line x1="0.0" y1="920.0" x2="1700.0" y2="920.0" stroke="#dedcd3" stroke-width="0.5" opacity="1"/>
<line x1="0.0" y1="960.0" x2="1700.0" y2="960.0" stroke="#dedcd3" stroke-width="0.5" opacity="1"/>
<line x1="0.0" y1="1000.0" x2="1700.0" y2="1000.0" stroke="#dedcd3" stroke-width="0.5" opacity="1"/>
<line x1="0.0" y1="1040.0" x2="1700.0" y2="1040.0" stroke="#dedcd3" stroke-width="0.5" opacity="1"/>
<line x1="0.0" y1="1080.0" x2="1700.0" y2="1080.0" stroke="#dedcd3" stroke-width="0.5" opacity="1"/>
<line x1="0.0" y1="1120.0" x2="1700.0" y2="1120.0" stroke="#dedcd3" stroke-width="0.5" opacity="1"/>
<line x1="0.0" y1="1160.0" x2="1700.0" y2="1160.0" stroke="#dedcd3" stroke-width="0.5" opacity="1"/>
<line x1="0.0" y1="1200.0" x2="1700.0" y2="1200.0" stroke="#dedcd3" stroke-width="0.5" opacity="1"/>
<line x1="0.0" y1="1240.0" x2="1700.0" y2="1240.0" stroke="#dedcd3" stroke-width="0.5" opacity="1"/>
<line x1="0.0" y1="1280.0" x2="1700.0" y2="1280.0" stroke="#dedcd3" stroke-width="0.5" opacity="1"/>
<line x1="0.0" y1="1320.0" x2="1700.0" y2="1320.0" stroke="#dedcd3" stroke-width="0.5" opacity="1"/>
<line x1="0.0" y1="1360.0" x2="1700.0" y2="1360.0" stroke="#dedcd3" stroke-width="0.5" opacity="1"/>
<line x1="0.0" y1="1400.0" x2="1700.0" y2="1400.0" stroke="#dedcd3" stroke-width="0.5" opacity="1"/>
<line x1="0.0" y1="1440.0" x2="1700.0" y2="1440.0" stroke="#dedcd3" stroke-width="0.5" opacity="1"/>
</g>
<rect x="18.0" y="18.0" width="1664.0" height="1424.0" rx="0" fill="none" stroke="#23262b" stroke-width="2" opacity="1"/>
<rect x="26.0" y="26.0" width="1648.0" height="1408.0" rx="0" fill="none" stroke="#6a6e74" stroke-width="0.8" opacity="1"/>
<text x="48.0" y="64.0" font-family="'IBM Plex Sans','DejaVu Sans',sans-serif" font-size="23" font-weight="700" fill="#23262b" text-anchor="start">VIRKESSKANNER — FAS 1-LAYOUT + KOMPLETT KOPPLINGSSCHEMA</text>
<text x="48.0" y="90.0" font-family="'IBM Plex Sans','DejaVu Sans',sans-serif" font-size="13" font-weight="400" fill="#6a6e74" text-anchor="start">Fas 1 = komplett röd-profilerare på rullband (Jrk G2-styrd matning, encoder→kameratrigg, anhåll+fotocell=nolla). Fas 2 = grön modul + 3× LR400 (RS-485) + line-scan-färgyta + vitljus. Alla anslutningar + Jetson I/O-budget.</text>
<line x1="48.0" y1="104.0" x2="1652.0" y2="104.0" stroke="#23262b" stroke-width="1.5" opacity="1"/>
<rect x="1340.0" y="44.0" width="14.0" height="14.0" rx="3" fill="#2f9e6e" stroke="#2f9e6e" stroke-width="0" opacity="1"/>
<text x="1358.0" y="56.0" font-family="'IBM Plex Sans','DejaVu Sans',sans-serif" font-size="11" font-weight="700" fill="#2f9e6e" text-anchor="start">Fas 1</text>
<rect x="1430.0" y="44.0" width="14.0" height="14.0" rx="3" fill="#7a3fb0" stroke="#7a3fb0" stroke-width="0" opacity="1"/>
<text x="1448.0" y="56.0" font-family="'IBM Plex Sans','DejaVu Sans',sans-serif" font-size="11" font-weight="700" fill="#7a3fb0" text-anchor="start">Fas 2 (tillägg)</text>
<rect x="48.0" y="130.0" width="540.0" height="590.0" rx="8" fill="#fff" stroke="#23262b" stroke-width="1.2" opacity="1"/>
<rect x="48.0" y="130.0" width="540.0" height="28.0" rx="8" fill="#2f9e6e" stroke="#2f9e6e" stroke-width="0" opacity="1"/>
<text x="60.0" y="149.0" font-family="'IBM Plex Sans','DejaVu Sans',sans-serif" font-size="12" font-weight="700" fill="#fff" text-anchor="start">FAS 1 — FYSISK LAYOUT (sidovy)</text>
<line x1="88.0" y1="490.0" x2="508.0" y2="490.0" stroke="#23262b" stroke-width="1.5" opacity="1"/>
<circle cx="158.0" cy="474.0" r="16.0" fill="#cfd2d6" stroke="#7a7f86" stroke-width="1.4"/>
<circle cx="158.0" cy="474.0" r="4.0" fill="#6a6e74" stroke="#6a6e74" stroke-width="0"/>
<circle cx="438.0" cy="474.0" r="16.0" fill="#cfd2d6" stroke="#7a7f86" stroke-width="1.4"/>
<circle cx="438.0" cy="474.0" r="4.0" fill="#6a6e74" stroke="#6a6e74" stroke-width="0"/>
<line x1="142.0" y1="458.0" x2="454.0" y2="458.0" stroke="#444a52" stroke-width="4" opacity="1"/>
<text x="298.0" y="508.0" font-family="'IBM Plex Mono','DejaVu Sans Mono',monospace" font-size="9.5" font-weight="700" fill="#6a6e74" text-anchor="middle">TRANSPORTBAND (svart matt, 24 V, ~50 mm/s)</text>
<rect x="238.0" y="434.0" width="150.0" height="22.0" rx="0" fill="#e9e1cf" stroke="#b9a96f" stroke-width="1.4" opacity="1"/>
<text x="313.0" y="449.0" font-family="'IBM Plex Mono','DejaVu Sans Mono',monospace" font-size="8.5" font-weight="700" fill="#8a7d4e" text-anchor="middle">bräda 500×75</text>
<rect x="226.0" y="420.0" width="8.0" height="36.0" rx="0" fill="#9aa0a8" stroke="#6e747b" stroke-width="1" opacity="1"/>
<text x="208.0" y="414.0" font-family="'IBM Plex Mono','DejaVu Sans Mono',monospace" font-size="8" font-weight="700" fill="#6a6e74" text-anchor="end">FAST ANHÅLL</text>
<rect x="210.0" y="444.0" width="12.0" height="16.0" rx="0" fill="#16212e" stroke="#c98a16" stroke-width="1.2" opacity="1"/>
<text x="208.0" y="460.0" font-family="'IBM Plex Mono','DejaVu Sans Mono',monospace" font-size="8" font-weight="700" fill="#c98a16" text-anchor="end">fotocell (nolla)</text>
<circle cx="338.0" cy="520.0" r="9.0" fill="#bfe6c8" stroke="#2f9e6e" stroke-width="1.4"/>
<text x="352.0" y="524.0" font-family="'IBM Plex Mono','DejaVu Sans Mono',monospace" font-size="8" font-weight="700" fill="#2f9e6e" text-anchor="start">mäthjuls-encoder (mot band)</text>
<line x1="338.0" y1="511.0" x2="338.0" y2="490.0" stroke="#2f9e6e" stroke-width="1" stroke-dasharray="2 3" opacity="0.7"/>
<rect x="208.0" y="260.0" width="120.0" height="46.0" rx="5" fill="#fde9e3" stroke="#e8542c" stroke-width="1.6" opacity="1"/>
<rect x="208.0" y="260.0" width="120.0" height="14.0" rx="5" fill="#e8542c" stroke="#e8542c" stroke-width="0" opacity="1"/>
<text x="268.0" y="270.0" font-family="'IBM Plex Sans','DejaVu Sans',sans-serif" font-size="9" font-weight="700" fill="#fff" text-anchor="middle">RÖD-HUVUD</text>
<text x="268.0" y="290.0" font-family="'IBM Plex Mono','DejaVu Sans Mono',monospace" font-size="8" font-weight="400" fill="#23262b" text-anchor="middle">650 laser + CS050</text>
<line x1="268.0" y1="306.0" x2="313.0" y2="434.0" stroke="#e8542c" stroke-width="2" opacity="1"/>
<line x1="313.0" y1="434.0" x2="306.3" y2="428.0" stroke="#e8542c" stroke-width="2" opacity="1"/>
<line x1="313.0" y1="434.0" x2="314.5" y2="425.1" stroke="#e8542c" stroke-width="2" opacity="1"/>
<text x="202.0" y="330.0" font-family="'IBM Plex Mono','DejaVu Sans Mono',monospace" font-size="9" font-weight="700" fill="#e8542c" text-anchor="end">30°</text>
<line x1="218.0" y1="306.0" x2="218.0" y2="490.0" stroke="#c3c6ca" stroke-width="4" opacity="1"/>
<line x1="448.0" y1="330.0" x2="448.0" y2="490.0" stroke="#c3c6ca" stroke-width="4" opacity="1"/>
<line x1="218.0" y1="260.0" x2="448.0" y2="284.0" stroke="#c3c6ca" stroke-width="5" opacity="1"/>
<text x="448.0" y="274.0" font-family="'IBM Plex Mono','DejaVu Sans Mono',monospace" font-size="8" font-weight="700" fill="#6a6e74" text-anchor="start">stativ</text>
<rect x="468.0" y="450.0" width="70.0" height="34.0" rx="4" fill="#e9eef5" stroke="#2f6fb0" stroke-width="1.4" opacity="1"/>
<text x="503.0" y="472.0" font-family="'IBM Plex Mono','DejaVu Sans Mono',monospace" font-size="8.5" font-weight="700" fill="#2f6fb0" text-anchor="middle">JRK G2</text>
<text x="503.0" y="482.0" font-family="'IBM Plex Mono','DejaVu Sans Mono',monospace" font-size="8.5" font-weight="700" fill="#2f6fb0" text-anchor="middle">(USB)</text>
<line x1="468.0" y1="467.0" x2="454.0" y2="472.0" stroke="#2f6fb0" stroke-width="1.6" opacity="1"/>
<line x1="454.0" y1="472.0" x2="460.0" y2="465.3" stroke="#2f6fb0" stroke-width="1.6" opacity="1"/>
<line x1="454.0" y1="472.0" x2="462.9" y2="473.4" stroke="#2f6fb0" stroke-width="1.6" opacity="1"/>
<rect x="238.0" y="530.0" width="150.0" height="50.0" rx="6" fill="#e6efe6" stroke="#3b7d3b" stroke-width="1.6" opacity="1"/>
<text x="313.0" y="552.0" font-family="'IBM Plex Sans','DejaVu Sans',sans-serif" font-size="10.5" font-weight="700" fill="#3b7d3b" text-anchor="middle">JETSON Orin Nano</text>
<text x="313.0" y="568.0" font-family="'IBM Plex Mono','DejaVu Sans Mono',monospace" font-size="8.5" font-weight="400" fill="#6a6e74" text-anchor="middle">styr matning + U-Net</text>
<line x1="278.0" y1="530.0" x2="278.0" y2="486.0" stroke="#3b7d3b" stroke-width="0.8" stroke-dasharray="2 3" opacity="0.6"/>
<line x1="503.0" y1="530.0" x2="503.0" y2="486.0" stroke="#3b7d3b" stroke-width="0.8" stroke-dasharray="2 3" opacity="0.6"/>
<line x1="216.0" y1="530.0" x2="216.0" y2="486.0" stroke="#3b7d3b" stroke-width="0.8" stroke-dasharray="2 3" opacity="0.6"/>
<line x1="263.0" y1="412.0" x2="363.0" y2="412.0" stroke="#b06" stroke-width="2" opacity="1"/>
<line x1="363.0" y1="412.0" x2="355.1" y2="416.3" stroke="#b06" stroke-width="2" opacity="1"/>
<line x1="363.0" y1="412.0" x2="355.1" y2="407.7" stroke="#b06" stroke-width="2" opacity="1"/>
<line x1="363.0" y1="398.0" x2="263.0" y2="398.0" stroke="#2f6fb0" stroke-width="1.6" opacity="1"/>
<line x1="263.0" y1="398.0" x2="270.9" y2="393.7" stroke="#2f6fb0" stroke-width="1.6" opacity="1"/>
<line x1="263.0" y1="398.0" x2="270.9" y2="402.3" stroke="#2f6fb0" stroke-width="1.6" opacity="1"/>
<text x="313.0" y="390.0" font-family="'IBM Plex Mono','DejaVu Sans Mono',monospace" font-size="8.5" font-weight="700" fill="#b06" text-anchor="middle">fram / back (multi-pass)</text>
<rect x="612.0" y="130.0" width="1040.0" height="590.0" rx="8" fill="#fff" stroke="#23262b" stroke-width="1.2" opacity="1"/>
<rect x="612.0" y="130.0" width="1040.0" height="28.0" rx="8" fill="#23262b" stroke="#23262b" stroke-width="0" opacity="1"/>
<text x="624.0" y="149.0" font-family="'IBM Plex Sans','DejaVu Sans',sans-serif" font-size="12" font-weight="700" fill="#fff" text-anchor="start">KOMPLETT KOPPLINGSSCHEMA — allt till Jetson</text>
<rect x="992.0" y="380.0" width="250.0" height="120.0" rx="8" fill="#e6efe6" stroke="#3b7d3b" stroke-width="2" opacity="1"/>
<rect x="992.0" y="380.0" width="250.0" height="24.0" rx="8" fill="#3b7d3b" stroke="#3b7d3b" stroke-width="0" opacity="1"/>
<text x="1117.0" y="397.0" font-family="'IBM Plex Sans','DejaVu Sans',sans-serif" font-size="11.5" font-weight="700" fill="#fff" text-anchor="middle">JETSON ORIN NANO SUPER</text>
<text x="1117.0" y="424.0" font-family="'IBM Plex Sans','DejaVu Sans',sans-serif" font-size="9.5" font-weight="400" fill="#23262b" text-anchor="middle">4× USB3 · 1× GbE (RJ45)</text>
<text x="1117.0" y="440.0" font-family="'IBM Plex Sans','DejaVu Sans',sans-serif" font-size="9.5" font-weight="400" fill="#23262b" text-anchor="middle">40-pin: GPIO · SPI×2 · I²C×2 · PWM</text>
<text x="1117.0" y="458.0" font-family="'IBM Plex Sans','DejaVu Sans',sans-serif" font-size="9.5" font-weight="700" fill="#3b7d3b" text-anchor="middle">DC-in 7–25 V · ingen ADC behövs</text>
<text x="1117.0" y="480.0" font-family="'IBM Plex Sans','DejaVu Sans',sans-serif" font-size="9" font-weight="400" fill="#6a6e74" text-anchor="middle">(LR400 = RS-485 digitalt)</text>
<rect x="632.0" y="200.0" width="230.0" height="52.0" rx="8" fill="#fff" stroke="#2f9e6e" stroke-width="1.6" opacity="1"/>
<rect x="632.0" y="200.0" width="230.0" height="22.0" rx="8" fill="#2f9e6e" stroke="#2f9e6e" stroke-width="0" opacity="1"/>
<text x="642.0" y="216.0" font-family="'IBM Plex Sans','DejaVu Sans',sans-serif" font-size="11" font-weight="700" fill="#fff" text-anchor="start">Profilkamera RÖD</text>
<text x="642.0" y="238.0" font-family="'IBM Plex Sans','DejaVu Sans',sans-serif" font-size="9" font-weight="400" fill="#23262b" text-anchor="start">MV-CS050-10UM</text>
<line x1="862.0" y1="226.0" x2="992.0" y2="386.5" stroke="#2f9e6e" stroke-width="1.8" opacity="1"/>
<line x1="992.0" y1="386.5" x2="983.7" y2="383.1" stroke="#2f9e6e" stroke-width="1.8" opacity="1"/>
<line x1="992.0" y1="386.5" x2="990.4" y2="377.6" stroke="#2f9e6e" stroke-width="1.8" opacity="1"/>
<rect x="890.0" y="297.2" width="74.0" height="16.0" rx="3" fill="#fff" stroke="#2f9e6e" stroke-width="0.8" opacity="1"/>
<text x="927.0" y="309.2" font-family="'IBM Plex Mono','DejaVu Sans Mono',monospace" font-size="8.5" font-weight="700" fill="#2f9e6e" text-anchor="middle">USB3 (egen)</text>
<rect x="632.0" y="280.0" width="230.0" height="52.0" rx="8" fill="#fff" stroke="#2f9e6e" stroke-width="1.6" opacity="1"/>
<rect x="632.0" y="280.0" width="230.0" height="22.0" rx="8" fill="#2f9e6e" stroke="#2f9e6e" stroke-width="0" opacity="1"/>
<text x="642.0" y="296.0" font-family="'IBM Plex Sans','DejaVu Sans',sans-serif" font-size="11" font-weight="700" fill="#fff" text-anchor="start">Linjelaser RÖD 650</text>
<text x="642.0" y="318.0" font-family="'IBM Plex Sans','DejaVu Sans',sans-serif" font-size="9" font-weight="400" fill="#23262b" text-anchor="start">MZLaser, CW</text>
<line x1="862.0" y1="306.0" x2="992.0" y2="406.5" stroke="#2f9e6e" stroke-width="1.8" opacity="1"/>
<line x1="992.0" y1="406.5" x2="983.1" y2="405.1" stroke="#2f9e6e" stroke-width="1.8" opacity="1"/>
<line x1="992.0" y1="406.5" x2="988.4" y2="398.3" stroke="#2f9e6e" stroke-width="1.8" opacity="1"/>
<rect x="881.0" y="347.2" width="92.0" height="16.0" rx="3" fill="#fff" stroke="#2f9e6e" stroke-width="0.8" opacity="1"/>
<text x="927.0" y="359.2" font-family="'IBM Plex Mono','DejaVu Sans Mono',monospace" font-size="8.5" font-weight="700" fill="#2f9e6e" text-anchor="middle">24 V + GPIO-en</text>
<rect x="632.0" y="360.0" width="230.0" height="52.0" rx="8" fill="#fff" stroke="#2f9e6e" stroke-width="1.6" opacity="1"/>
<rect x="632.0" y="360.0" width="230.0" height="22.0" rx="8" fill="#2f9e6e" stroke="#2f9e6e" stroke-width="0" opacity="1"/>
<text x="642.0" y="376.0" font-family="'IBM Plex Sans','DejaVu Sans',sans-serif" font-size="11" font-weight="700" fill="#fff" text-anchor="start">Transportör (Jrk G2)</text>
<text x="642.0" y="398.0" font-family="'IBM Plex Sans','DejaVu Sans',sans-serif" font-size="9" font-weight="400" fill="#23262b" text-anchor="start">24 V motor</text>
<line x1="862.0" y1="386.0" x2="992.0" y2="426.5" stroke="#2f9e6e" stroke-width="1.8" opacity="1"/>
<line x1="992.0" y1="426.5" x2="983.2" y2="428.3" stroke="#2f9e6e" stroke-width="1.8" opacity="1"/>
<line x1="992.0" y1="426.5" x2="985.7" y2="420.0" stroke="#2f9e6e" stroke-width="1.8" opacity="1"/>
<rect x="893.0" y="397.2" width="68.0" height="16.0" rx="3" fill="#fff" stroke="#2f9e6e" stroke-width="0.8" opacity="1"/>
<text x="927.0" y="409.2" font-family="'IBM Plex Mono','DejaVu Sans Mono',monospace" font-size="8.5" font-weight="700" fill="#2f9e6e" text-anchor="middle">USB (hubb)</text>
<rect x="632.0" y="440.0" width="230.0" height="52.0" rx="8" fill="#fff" stroke="#2f9e6e" stroke-width="1.6" opacity="1"/>
<rect x="632.0" y="440.0" width="230.0" height="22.0" rx="8" fill="#2f9e6e" stroke="#2f9e6e" stroke-width="0" opacity="1"/>
<text x="642.0" y="456.0" font-family="'IBM Plex Sans','DejaVu Sans',sans-serif" font-size="11" font-weight="700" fill="#fff" text-anchor="start">Mäthjuls-encoder A/B/Z</text>
<text x="642.0" y="478.0" font-family="'IBM Plex Sans','DejaVu Sans',sans-serif" font-size="9" font-weight="400" fill="#23262b" text-anchor="start">mot band (retur)</text>
<line x1="862.0" y1="466.0" x2="898.0" y2="466.0" stroke="#2f9e6e" stroke-width="1.8" stroke-dasharray="4 3" opacity="1"/>
<text x="904.0" y="462.0" font-family="'IBM Plex Mono','DejaVu Sans Mono',monospace" font-size="8" font-weight="700" fill="#2f9e6e" text-anchor="start">→ kamera encoder-in</text>
<text x="904.0" y="474.0" font-family="'IBM Plex Mono','DejaVu Sans Mono',monospace" font-size="7.5" font-weight="400" fill="#6a6e74" text-anchor="start">(line-trigg, ej Jetson)</text>
<rect x="632.0" y="520.0" width="230.0" height="52.0" rx="8" fill="#fff" stroke="#2f9e6e" stroke-width="1.6" opacity="1"/>
<rect x="632.0" y="520.0" width="230.0" height="22.0" rx="8" fill="#2f9e6e" stroke="#2f9e6e" stroke-width="0" opacity="1"/>
<text x="642.0" y="536.0" font-family="'IBM Plex Sans','DejaVu Sans',sans-serif" font-size="11" font-weight="700" fill="#fff" text-anchor="start">Anhåll-fotocell</text>
<text x="642.0" y="558.0" font-family="'IBM Plex Sans','DejaVu Sans',sans-serif" font-size="9" font-weight="400" fill="#23262b" text-anchor="start">nolla / home</text>
<line x1="862.0" y1="546.0" x2="992.0" y2="466.5" stroke="#2f9e6e" stroke-width="1.8" opacity="1"/>
<line x1="992.0" y1="466.5" x2="987.5" y2="474.3" stroke="#2f9e6e" stroke-width="1.8" opacity="1"/>
<line x1="992.0" y1="466.5" x2="983.0" y2="466.9" stroke="#2f9e6e" stroke-width="1.8" opacity="1"/>
<rect x="911.0" y="497.2" width="32.0" height="16.0" rx="3" fill="#fff" stroke="#2f9e6e" stroke-width="0.8" opacity="1"/>
<text x="927.0" y="509.2" font-family="'IBM Plex Mono','DejaVu Sans Mono',monospace" font-size="8.5" font-weight="700" fill="#2f9e6e" text-anchor="middle">GPIO</text>
<rect x="1372.0" y="200.0" width="268.0" height="52.0" rx="8" fill="#fff" stroke="#7a3fb0" stroke-width="1.6" opacity="1"/>
<rect x="1372.0" y="200.0" width="268.0" height="22.0" rx="8" fill="#7a3fb0" stroke="#7a3fb0" stroke-width="0" opacity="1"/>
<text x="1382.0" y="216.0" font-family="'IBM Plex Sans','DejaVu Sans',sans-serif" font-size="11" font-weight="700" fill="#fff" text-anchor="start">Profilkamera GRÖN</text>
<text x="1382.0" y="238.0" font-family="'IBM Plex Sans','DejaVu Sans',sans-serif" font-size="9" font-weight="400" fill="#23262b" text-anchor="start">MV-CS050-10UM</text>
<line x1="1372.0" y1="226.0" x2="1242.0" y2="386.5" stroke="#7a3fb0" stroke-width="1.8" opacity="1"/>
<line x1="1242.0" y1="386.5" x2="1243.6" y2="377.6" stroke="#7a3fb0" stroke-width="1.8" opacity="1"/>
<line x1="1242.0" y1="386.5" x2="1250.3" y2="383.1" stroke="#7a3fb0" stroke-width="1.8" opacity="1"/>
<rect x="1270.0" y="297.2" width="74.0" height="16.0" rx="3" fill="#fff" stroke="#7a3fb0" stroke-width="0.8" opacity="1"/>
<text x="1307.0" y="309.2" font-family="'IBM Plex Mono','DejaVu Sans Mono',monospace" font-size="8.5" font-weight="700" fill="#7a3fb0" text-anchor="middle">USB3 (egen)</text>
<rect x="1372.0" y="280.0" width="268.0" height="52.0" rx="8" fill="#fff" stroke="#7a3fb0" stroke-width="1.6" opacity="1"/>
<rect x="1372.0" y="280.0" width="268.0" height="22.0" rx="8" fill="#7a3fb0" stroke="#7a3fb0" stroke-width="0" opacity="1"/>
<text x="1382.0" y="296.0" font-family="'IBM Plex Sans','DejaVu Sans',sans-serif" font-size="11" font-weight="700" fill="#fff" text-anchor="start">Linjelaser GRÖN 520</text>
<text x="1382.0" y="318.0" font-family="'IBM Plex Sans','DejaVu Sans',sans-serif" font-size="9" font-weight="400" fill="#23262b" text-anchor="start">MZLaser, CW</text>
<line x1="1372.0" y1="306.0" x2="1242.0" y2="406.5" stroke="#7a3fb0" stroke-width="1.8" opacity="1"/>
<line x1="1242.0" y1="406.5" x2="1245.6" y2="398.3" stroke="#7a3fb0" stroke-width="1.8" opacity="1"/>
<line x1="1242.0" y1="406.5" x2="1250.9" y2="405.1" stroke="#7a3fb0" stroke-width="1.8" opacity="1"/>
<rect x="1261.0" y="347.2" width="92.0" height="16.0" rx="3" fill="#fff" stroke="#7a3fb0" stroke-width="0.8" opacity="1"/>
<text x="1307.0" y="359.2" font-family="'IBM Plex Mono','DejaVu Sans Mono',monospace" font-size="8.5" font-weight="700" fill="#7a3fb0" text-anchor="middle">24 V + GPIO-en</text>
<rect x="1372.0" y="360.0" width="268.0" height="52.0" rx="8" fill="#fff" stroke="#7a3fb0" stroke-width="1.6" opacity="1"/>
<rect x="1372.0" y="360.0" width="268.0" height="22.0" rx="8" fill="#7a3fb0" stroke="#7a3fb0" stroke-width="0" opacity="1"/>
<text x="1382.0" y="376.0" font-family="'IBM Plex Sans','DejaVu Sans',sans-serif" font-size="11" font-weight="700" fill="#fff" text-anchor="start">3× Punktlaser LR400</text>
<text x="1382.0" y="398.0" font-family="'IBM Plex Sans','DejaVu Sans',sans-serif" font-size="9" font-weight="400" fill="#23262b" text-anchor="start">RS-485 Modbus</text>
<line x1="1372.0" y1="386.0" x2="1242.0" y2="426.5" stroke="#7a3fb0" stroke-width="1.8" opacity="1"/>
<line x1="1242.0" y1="426.5" x2="1248.3" y2="420.0" stroke="#7a3fb0" stroke-width="1.8" opacity="1"/>
<line x1="1242.0" y1="426.5" x2="1250.8" y2="428.3" stroke="#7a3fb0" stroke-width="1.8" opacity="1"/>
<rect x="1246.0" y="397.2" width="122.0" height="16.0" rx="3" fill="#fff" stroke="#7a3fb0" stroke-width="0.8" opacity="1"/>
<text x="1307.0" y="409.2" font-family="'IBM Plex Mono','DejaVu Sans Mono',monospace" font-size="8.5" font-weight="700" fill="#7a3fb0" text-anchor="middle">Waveshare 4CH ch1–3</text>
<rect x="1372.0" y="440.0" width="268.0" height="52.0" rx="8" fill="#fff" stroke="#7a3fb0" stroke-width="1.6" opacity="1"/>
<rect x="1372.0" y="440.0" width="268.0" height="22.0" rx="8" fill="#7a3fb0" stroke="#7a3fb0" stroke-width="0" opacity="1"/>
<text x="1382.0" y="456.0" font-family="'IBM Plex Sans','DejaVu Sans',sans-serif" font-size="11" font-weight="700" fill="#fff" text-anchor="start">Ytkamera 4K FÄRG</text>
<text x="1382.0" y="478.0" font-family="'IBM Plex Sans','DejaVu Sans',sans-serif" font-size="9" font-weight="400" fill="#23262b" text-anchor="start">Huateng line-scan</text>
<line x1="1372.0" y1="466.0" x2="1242.0" y2="446.5" stroke="#7a3fb0" stroke-width="1.8" opacity="1"/>
<line x1="1242.0" y1="446.5" x2="1250.5" y2="443.4" stroke="#7a3fb0" stroke-width="1.8" opacity="1"/>
<line x1="1242.0" y1="446.5" x2="1249.2" y2="451.9" stroke="#7a3fb0" stroke-width="1.8" opacity="1"/>
<rect x="1273.0" y="447.2" width="68.0" height="16.0" rx="3" fill="#fff" stroke="#7a3fb0" stroke-width="0.8" opacity="1"/>
<text x="1307.0" y="459.2" font-family="'IBM Plex Mono','DejaVu Sans Mono',monospace" font-size="8.5" font-weight="700" fill="#7a3fb0" text-anchor="middle">GbE (RJ45)</text>
<rect x="1372.0" y="520.0" width="268.0" height="52.0" rx="8" fill="#fff" stroke="#7a3fb0" stroke-width="1.6" opacity="1"/>
<rect x="1372.0" y="520.0" width="268.0" height="22.0" rx="8" fill="#7a3fb0" stroke="#7a3fb0" stroke-width="0" opacity="1"/>
<text x="1382.0" y="536.0" font-family="'IBM Plex Sans','DejaVu Sans',sans-serif" font-size="11" font-weight="700" fill="#fff" text-anchor="start">2× Vitt LED-linjeljus</text>
<text x="1382.0" y="558.0" font-family="'IBM Plex Sans','DejaVu Sans',sans-serif" font-size="9" font-weight="400" fill="#23262b" text-anchor="start">konstantström</text>
<line x1="1372.0" y1="546.0" x2="1242.0" y2="466.5" stroke="#7a3fb0" stroke-width="1.8" opacity="1"/>
<line x1="1242.0" y1="466.5" x2="1251.0" y2="466.9" stroke="#7a3fb0" stroke-width="1.8" opacity="1"/>
<line x1="1242.0" y1="466.5" x2="1246.5" y2="474.3" stroke="#7a3fb0" stroke-width="1.8" opacity="1"/>
<rect x="1270.0" y="497.2" width="74.0" height="16.0" rx="3" fill="#fff" stroke="#7a3fb0" stroke-width="0.8" opacity="1"/>
<text x="1307.0" y="509.2" font-family="'IBM Plex Mono','DejaVu Sans Mono',monospace" font-size="8.5" font-weight="700" fill="#7a3fb0" text-anchor="middle">24 V + GPIO</text>
<text x="1506.0" y="424.0" font-family="'IBM Plex Mono','DejaVu Sans Mono',monospace" font-size="8" font-weight="700" fill="#6a6e74" text-anchor="middle">ch4 LEDIG (Modbus-reserv)</text>
<rect x="962.0" y="536.0" width="310.0" height="40.0" rx="6" fill="#fff5e6" stroke="#c89028" stroke-width="1.4" opacity="1"/>
<text x="1117.0" y="554.0" font-family="'IBM Plex Mono','DejaVu Sans Mono',monospace" font-size="9" font-weight="700" fill="#8a6510" text-anchor="middle">NÄTAGGREGAT — 24 V (band/laser/LED) · 5 V logik · Jetson egen DC</text>
<line x1="1117.0" y1="536.0" x2="1117.0" y2="500.0" stroke="#c89028" stroke-width="1.6" opacity="1"/>
<line x1="1117.0" y1="500.0" x2="1121.3" y2="507.9" stroke="#c89028" stroke-width="1.6" opacity="1"/>
<line x1="1117.0" y1="500.0" x2="1112.7" y2="507.9" stroke="#c89028" stroke-width="1.6" opacity="1"/>
<rect x="48.0" y="760.0" width="1604.0" height="360.0" rx="8" fill="#fff" stroke="#23262b" stroke-width="1.2" opacity="1"/>
<rect x="48.0" y="760.0" width="1604.0" height="30.0" rx="8" fill="#23262b" stroke="#23262b" stroke-width="0" opacity="1"/>
<text x="60.0" y="780.0" font-family="'IBM Plex Sans','DejaVu Sans',sans-serif" font-size="13" font-weight="700" fill="#fff" text-anchor="start">JETSON ORIN NANO — I/O-BUDGET (räcker till allt, med marginal)</text>
<text x="70.0" y="812.0" font-family="'IBM Plex Mono','DejaVu Sans Mono',monospace" font-size="10.5" font-weight="700" fill="#6a6e74" text-anchor="start">GRÄNSSNITT</text>
<text x="430.0" y="812.0" font-family="'IBM Plex Mono','DejaVu Sans Mono',monospace" font-size="10.5" font-weight="700" fill="#6a6e74" text-anchor="start">TILLGÄNGLIGT</text>
<text x="660.0" y="812.0" font-family="'IBM Plex Mono','DejaVu Sans Mono',monospace" font-size="10.5" font-weight="700" fill="#6a6e74" text-anchor="start">ANVÄNDS</text>
<text x="1200.0" y="812.0" font-family="'IBM Plex Mono','DejaVu Sans Mono',monospace" font-size="10.5" font-weight="700" fill="#6a6e74" text-anchor="start">STATUS</text>
<line x1="60.0" y1="820.0" x2="1640.0" y2="820.0" stroke="#9a9ea4" stroke-width="1" opacity="1"/>
<rect x="64.0" y="839.0" width="12.0" height="12.0" rx="2" fill="#2f9e6e" stroke="#2f9e6e" stroke-width="0" opacity="1"/>
<text x="86.0" y="852.0" font-family="'IBM Plex Sans','DejaVu Sans',sans-serif" font-size="10.5" font-weight="700" fill="#23262b" text-anchor="start">USB 3.2 Gen2 (Type-A)</text>
<text x="430.0" y="852.0" font-family="'IBM Plex Mono','DejaVu Sans Mono',monospace" font-size="10" font-weight="400" fill="#6a6e74" text-anchor="start">4 st</text>
<text x="660.0" y="852.0" font-family="'IBM Plex Sans','DejaVu Sans',sans-serif" font-size="10" font-weight="400" fill="#23262b" text-anchor="start">3 — RÖD + GRÖN profilkamera + Jrk G2 (via hubb)</text>
<text x="1200.0" y="852.0" font-family="'IBM Plex Sans','DejaVu Sans',sans-serif" font-size="10.5" font-weight="700" fill="#2f9e6e" text-anchor="start">OK · 1 ledig</text>
<rect x="60.0" y="864.0" width="1580.0" height="34.0" rx="0" fill="#ecebe4" stroke="none" stroke-width="0" opacity="1"/>
<rect x="64.0" y="873.0" width="12.0" height="12.0" rx="2" fill="#7a3fb0" stroke="#7a3fb0" stroke-width="0" opacity="1"/>
<text x="86.0" y="886.0" font-family="'IBM Plex Sans','DejaVu Sans',sans-serif" font-size="10.5" font-weight="700" fill="#23262b" text-anchor="start">USB → RS-485 4CH</text>
<text x="430.0" y="886.0" font-family="'IBM Plex Mono','DejaVu Sans Mono',monospace" font-size="10" font-weight="400" fill="#6a6e74" text-anchor="start">Waveshare 4CH</text>
<text x="660.0" y="886.0" font-family="'IBM Plex Sans','DejaVu Sans',sans-serif" font-size="10" font-weight="400" fill="#23262b" text-anchor="start">3× LR400 Modbus (ch1–3) · ch4 LEDIG</text>
<text x="1200.0" y="886.0" font-family="'IBM Plex Sans','DejaVu Sans',sans-serif" font-size="10.5" font-weight="700" fill="#7a3fb0" text-anchor="start">OK · reserv kvar</text>
<rect x="64.0" y="907.0" width="12.0" height="12.0" rx="2" fill="#7a3fb0" stroke="#7a3fb0" stroke-width="0" opacity="1"/>
<text x="86.0" y="920.0" font-family="'IBM Plex Sans','DejaVu Sans',sans-serif" font-size="10.5" font-weight="700" fill="#23262b" text-anchor="start">Gigabit Ethernet (RJ45)</text>
<text x="430.0" y="920.0" font-family="'IBM Plex Mono','DejaVu Sans Mono',monospace" font-size="10" font-weight="400" fill="#6a6e74" text-anchor="start">1 st</text>
<text x="660.0" y="920.0" font-family="'IBM Plex Sans','DejaVu Sans',sans-serif" font-size="10" font-weight="400" fill="#23262b" text-anchor="start">1 — ytkamera FÄRG (Huateng line-scan)</text>
<text x="1200.0" y="920.0" font-family="'IBM Plex Sans','DejaVu Sans',sans-serif" font-size="10.5" font-weight="700" fill="#7a3fb0" text-anchor="start">OK</text>
<rect x="60.0" y="932.0" width="1580.0" height="34.0" rx="0" fill="#ecebe4" stroke="none" stroke-width="0" opacity="1"/>
<rect x="64.0" y="941.0" width="12.0" height="12.0" rx="2" fill="#2f9e6e" stroke="#2f9e6e" stroke-width="0" opacity="1"/>
<text x="86.0" y="954.0" font-family="'IBM Plex Sans','DejaVu Sans',sans-serif" font-size="10.5" font-weight="700" fill="#23262b" text-anchor="start">Kamerans encoder-IN</text>
<text x="430.0" y="954.0" font-family="'IBM Plex Mono','DejaVu Sans Mono',monospace" font-size="10" font-weight="400" fill="#6a6e74" text-anchor="start">på kameran</text>
<text x="660.0" y="954.0" font-family="'IBM Plex Sans','DejaVu Sans',sans-serif" font-size="10" font-weight="400" fill="#23262b" text-anchor="start">mäthjuls-encoder A/B/Z (line-trigg) — EJ Jetson</text>
<text x="1200.0" y="954.0" font-family="'IBM Plex Sans','DejaVu Sans',sans-serif" font-size="10.5" font-weight="700" fill="#2f9e6e" text-anchor="start">OK · avlastar CPU</text>
<rect x="64.0" y="975.0" width="12.0" height="12.0" rx="2" fill="#2f9e6e" stroke="#2f9e6e" stroke-width="0" opacity="1"/>
<text x="86.0" y="988.0" font-family="'IBM Plex Sans','DejaVu Sans',sans-serif" font-size="10.5" font-weight="700" fill="#23262b" text-anchor="start">40-pin GPIO (3,3 V)</text>
<text x="430.0" y="988.0" font-family="'IBM Plex Mono','DejaVu Sans Mono',monospace" font-size="10" font-weight="400" fill="#6a6e74" text-anchor="start">~28</text>
<text x="660.0" y="988.0" font-family="'IBM Plex Sans','DejaVu Sans',sans-serif" font-size="10" font-weight="400" fill="#23262b" text-anchor="start">~5 — anhåll-fotocell, 2× laser-en, 2× LED-en</text>
<text x="1200.0" y="988.0" font-family="'IBM Plex Sans','DejaVu Sans',sans-serif" font-size="10.5" font-weight="700" fill="#2f9e6e" text-anchor="start">OK · gott om kvar</text>
<rect x="60.0" y="1000.0" width="1580.0" height="34.0" rx="0" fill="#ecebe4" stroke="none" stroke-width="0" opacity="1"/>
<rect x="64.0" y="1009.0" width="12.0" height="12.0" rx="2" fill="#9a9ea4" stroke="#9a9ea4" stroke-width="0" opacity="1"/>
<text x="86.0" y="1022.0" font-family="'IBM Plex Sans','DejaVu Sans',sans-serif" font-size="10.5" font-weight="700" fill="#23262b" text-anchor="start">40-pin I2C / SPI</text>
<text x="430.0" y="1022.0" font-family="'IBM Plex Mono','DejaVu Sans Mono',monospace" font-size="10" font-weight="400" fill="#6a6e74" text-anchor="start">2 + 2 bussar</text>
<text x="660.0" y="1022.0" font-family="'IBM Plex Sans','DejaVu Sans',sans-serif" font-size="10" font-weight="400" fill="#23262b" text-anchor="start">0 — reserv (ev. extra givare)</text>
<text x="1200.0" y="1022.0" font-family="'IBM Plex Sans','DejaVu Sans',sans-serif" font-size="10.5" font-weight="700" fill="#6a6e74" text-anchor="start">ledig</text>
<rect x="64.0" y="1043.0" width="12.0" height="12.0" rx="2" fill="#2f9e6e" stroke="#2f9e6e" stroke-width="0" opacity="1"/>
<text x="86.0" y="1056.0" font-family="'IBM Plex Sans','DejaVu Sans',sans-serif" font-size="10.5" font-weight="700" fill="#23262b" text-anchor="start">Analog in (ADC)</text>
<text x="430.0" y="1056.0" font-family="'IBM Plex Mono','DejaVu Sans Mono',monospace" font-size="10" font-weight="400" fill="#6a6e74" text-anchor="start">0 — saknas</text>
<text x="660.0" y="1056.0" font-family="'IBM Plex Sans','DejaVu Sans',sans-serif" font-size="10" font-weight="400" fill="#23262b" text-anchor="start">0 — behövs ej (allt digitalt)</text>
<text x="1200.0" y="1056.0" font-family="'IBM Plex Sans','DejaVu Sans',sans-serif" font-size="10.5" font-weight="700" fill="#2f9e6e" text-anchor="start">ingen ADC krävs</text>
<rect x="60.0" y="1068.0" width="1580.0" height="34.0" rx="0" fill="#ecebe4" stroke="none" stroke-width="0" opacity="1"/>
<rect x="64.0" y="1077.0" width="12.0" height="12.0" rx="2" fill="#23262b" stroke="#23262b" stroke-width="0" opacity="1"/>
<text x="86.0" y="1090.0" font-family="'IBM Plex Sans','DejaVu Sans',sans-serif" font-size="10.5" font-weight="700" fill="#23262b" text-anchor="start">DC-in (barrel)</text>
<text x="430.0" y="1090.0" font-family="'IBM Plex Mono','DejaVu Sans Mono',monospace" font-size="10" font-weight="400" fill="#6a6e74" text-anchor="start">1</text>
<text x="660.0" y="1090.0" font-family="'IBM Plex Sans','DejaVu Sans',sans-serif" font-size="10" font-weight="400" fill="#23262b" text-anchor="start">Jetson 7–25 V; separat 24 V (band/laser/LED) + 5 V logik</text>
<text x="1200.0" y="1090.0" font-family="'IBM Plex Sans','DejaVu Sans',sans-serif" font-size="10.5" font-weight="700" fill="#6a6e74" text-anchor="start">OK</text>
<rect x="1230.0" y="1374.0" width="422.0" height="56.0" rx="0" fill="#fff" stroke="#23262b" stroke-width="1.4" opacity="1"/>
<line x1="1230.0" y1="1402.0" x2="1652.0" y2="1402.0" stroke="#23262b" stroke-width="1" opacity="1"/>
<line x1="1492.0" y1="1374.0" x2="1492.0" y2="1430.0" stroke="#23262b" stroke-width="1" opacity="1"/>
<text x="1240.0" y="1392.0" font-family="'IBM Plex Sans','DejaVu Sans',sans-serif" font-size="11.5" font-weight="700" fill="#23262b" text-anchor="start">VIRKESSKANNER — KOPPLING + I/O</text>
<text x="1502.0" y="1392.0" font-family="'IBM Plex Mono','DejaVu Sans Mono',monospace" font-size="11" font-weight="400" fill="#23262b" text-anchor="start">PROTO-WIRE</text>
<text x="1240.0" y="1420.0" font-family="'IBM Plex Mono','DejaVu Sans Mono',monospace" font-size="9.5" font-weight="400" fill="#6a6e74" text-anchor="start">Fas 1 körbar · Fas 2 tillägg</text>
<text x="1502.0" y="1420.0" font-family="'IBM Plex Mono','DejaVu Sans Mono',monospace" font-size="9.5" font-weight="400" fill="#6a6e74" text-anchor="start">Jetson-I/O verifierad</text>
</svg>